<svg width="1440" height="568" viewBox="0 0 1440 568" fill="none" xmlns="http://www.w3.org/2000/svg">
<rect width="1440" height="568" fill="#EBF4FA"/>
<mask id="mask0" mask-type="alpha" maskUnits="userSpaceOnUse" x="0" y="0" width="1440" height="568">
<rect width="1440" height="568" fill="white"/>
</mask>
<g mask="url(#mask0)">
<rect x="973" y="318" width="1" height="225" fill="#DFE3E8"/>
<rect opacity="0.5" x="1003" y="198" width="1" height="225" fill="#DFE3E8"/>
<rect x="1069" y="253" width="1" height="225" fill="#DFE3E8"/>
<rect opacity="0.5" x="1167" y="227" width="1" height="225" fill="#DFE3E8"/>
<rect x="1183" y="325" width="1" height="225" fill="#DFE3E8"/>
<rect x="1126" y="176" width="1" height="225" fill="#DFE3E8"/>
<mask id="mask1" mask-type="alpha" maskUnits="userSpaceOnUse" x="308" y="404" width="1162" height="170">
<path fill-rule="evenodd" clip-rule="evenodd" d="M1155.94 486.893C1120.48 503.275 1085.7 494.232 1041.49 464.712C911.19 377.687 818.971 389.495 697.56 468.071C671.692 484.813 629.935 512.647 559.937 492.84C457.494 463.851 352.135 493.164 308.044 573.804H1469.77C1436.71 510.804 1313.02 414.351 1155.94 486.893Z" fill="white"/>
</mask>
<g mask="url(#mask1)">
<path fill-rule="evenodd" clip-rule="evenodd" d="M1155.94 486.893C1120.48 503.275 1085.7 494.232 1041.49 464.712C911.19 377.687 818.971 389.495 697.56 468.071C671.692 484.813 629.935 512.647 559.937 492.84C457.494 463.851 352.135 493.164 308.044 573.804H1469.77C1436.71 510.804 1313.02 414.351 1155.94 486.893Z" fill="url(#paint0_linear)"/>
</g>
<mask id="mask2" mask-type="alpha" maskUnits="userSpaceOnUse" x="543" y="480" width="432" height="94">
<path fill-rule="evenodd" clip-rule="evenodd" d="M543.932 573.804C548.998 564.406 574.32 545.925 606.456 550.932C641.535 556.4 649.244 544.474 663.705 539.515C690.183 530.436 710.619 560.39 719.77 541.384C731.455 517.121 750.424 505.126 808.267 528.994C822.006 534.663 821.064 522.103 827.318 514.768C839.463 500.526 854.171 526.815 860.919 525.373C868.582 523.734 866.243 512.543 870.731 502.961C880.08 482.997 896.215 501.76 907.338 500.112C918.412 498.473 924.341 476.5 936.88 480.943C963.67 490.431 955.261 546.212 953.605 558.655C961.223 548.037 974.638 540.24 974.638 573.804H543.932Z" fill="white"/>
</mask>
<g mask="url(#mask2)">
<path fill-rule="evenodd" clip-rule="evenodd" d="M543.932 573.804C548.998 564.406 574.32 545.925 606.456 550.932C641.535 556.4 649.244 544.474 663.705 539.515C690.183 530.436 710.619 560.39 719.77 541.384C731.455 517.121 750.424 505.126 808.267 528.994C822.006 534.663 821.064 522.103 827.318 514.768C839.463 500.526 854.171 526.815 860.919 525.373C868.582 523.734 866.243 512.543 870.731 502.961C880.08 482.997 896.215 501.76 907.338 500.112C918.412 498.473 924.341 476.5 936.88 480.943C963.67 490.431 955.261 546.212 953.605 558.655C961.223 548.037 974.638 540.24 974.638 573.804H543.932Z" fill="url(#paint1_linear)"/>
</g>
<mask id="mask3" mask-type="alpha" maskUnits="userSpaceOnUse" x="661" y="521" width="134" height="53">
<path fill-rule="evenodd" clip-rule="evenodd" d="M663.473 573.804H793.42C800.173 546.974 773.651 560.39 773.651 560.39C773.651 560.39 783.648 532.168 773.402 535.098C763.508 537.926 759.167 559.91 759.167 559.91C759.167 559.91 753.837 524.009 742.148 521.656C734.56 520.127 740.515 555.79 740.515 555.79C740.515 555.79 736.037 551.98 729.595 551.882C724.182 551.8 725.492 558.764 725.492 558.764C725.492 558.764 714.201 535.61 708.322 535.911C700.949 536.288 708.856 560.613 708.856 560.613C708.856 560.613 694.338 544.798 688.619 545.213C680.67 545.788 694.527 568.373 694.527 568.373C694.527 568.373 683.998 562.037 671.47 563.083C662.431 563.837 658.963 567.489 663.473 573.804Z" fill="white"/>
</mask>
<g mask="url(#mask3)">
<path fill-rule="evenodd" clip-rule="evenodd" d="M663.473 573.804H793.42C800.173 546.974 773.651 560.39 773.651 560.39C773.651 560.39 783.648 532.168 773.402 535.098C763.508 537.926 759.167 559.91 759.167 559.91C759.167 559.91 753.837 524.009 742.148 521.656C734.56 520.127 740.515 555.79 740.515 555.79C740.515 555.79 736.037 551.98 729.595 551.882C724.182 551.8 725.492 558.764 725.492 558.764C725.492 558.764 714.201 535.61 708.322 535.911C700.949 536.288 708.856 560.613 708.856 560.613C708.856 560.613 694.338 544.798 688.619 545.213C680.67 545.788 694.527 568.373 694.527 568.373C694.527 568.373 683.998 562.037 671.47 563.083C662.431 563.837 658.963 567.489 663.473 573.804Z" fill="url(#paint2_linear)"/>
</g>
<mask id="mask4" mask-type="alpha" maskUnits="userSpaceOnUse" x="1236" y="325" width="75" height="204">
<path fill-rule="evenodd" clip-rule="evenodd" d="M1310.12 426.561C1310.12 482.392 1287.94 528.054 1272.57 528.054C1257.18 528.054 1236.8 467.1 1236.8 411.269C1236.8 355.437 1261.7 319.438 1279.59 325.872C1299.76 333.12 1310.12 370.73 1310.12 426.561Z" fill="white"/>
</mask>
<g mask="url(#mask4)">
<path fill-rule="evenodd" clip-rule="evenodd" d="M1310.12 426.561C1310.12 482.392 1287.94 528.054 1272.57 528.054C1257.18 528.054 1236.8 467.1 1236.8 411.269C1236.8 355.437 1261.7 319.438 1279.59 325.872C1299.76 333.12 1310.12 370.73 1310.12 426.561Z" fill="url(#paint3_linear)"/>
</g>
<mask id="mask5" mask-type="alpha" maskUnits="userSpaceOnUse" x="942" y="373" width="120" height="201">
<path fill-rule="evenodd" clip-rule="evenodd" d="M1061.04 573.804H942.33V454.878L1001.68 373.02L1061.04 454.878V573.804Z" fill="white"/>
</mask>
<g mask="url(#mask5)">
<path fill-rule="evenodd" clip-rule="evenodd" d="M1061.04 573.804H942.33V454.878L1001.68 373.02L1061.04 454.878V573.804Z" fill="url(#paint4_linear)"/>
</g>
<path fill-rule="evenodd" clip-rule="evenodd" d="M1061.04 573.804H1201.03V454.878H1061.04V573.804Z" fill="#F7CE8F"/>
<mask id="mask6" mask-type="alpha" maskUnits="userSpaceOnUse" x="1083" y="476" width="137" height="98">
<path fill-rule="evenodd" clip-rule="evenodd" d="M1083.43 476.635H1219.69V573.804H1083.43V476.635Z" fill="white"/>
</mask>
<g mask="url(#mask6)">
<path fill-rule="evenodd" clip-rule="evenodd" d="M1083.43 573.804H1219.69V476.635H1083.43V573.804Z" fill="url(#paint5_linear)"/>
</g>
<path fill-rule="evenodd" clip-rule="evenodd" d="M1219.69 573.804H1359.68V476.635H1219.69V573.804Z" fill="url(#paint6_linear)"/>
<path fill-rule="evenodd" clip-rule="evenodd" d="M1102.08 573.804H1201.03V498.533H1102.08V573.804Z" fill="#9D9D9C"/>
<mask id="mask7" mask-type="alpha" maskUnits="userSpaceOnUse" x="1001" y="373" width="201" height="82">
<path fill-rule="evenodd" clip-rule="evenodd" d="M1001.68 373.02H1141.68L1201.03 454.878H1061.04L1001.68 373.02Z" fill="white"/>
</mask>
<g mask="url(#mask7)">
<path fill-rule="evenodd" clip-rule="evenodd" d="M1001.68 373.02H1141.68L1201.03 454.878H1061.04L1001.68 373.02Z" fill="url(#paint7_linear)"/>
</g>
<path fill-rule="evenodd" clip-rule="evenodd" d="M1102.08 573.804H1107.86V498.533H1102.08V573.804Z" fill="#F7CE8F"/>
<path fill-rule="evenodd" clip-rule="evenodd" d="M1107.86 500.181H1201.03V498.533H1107.86V500.181Z" fill="#415680"/>
<path fill-rule="evenodd" clip-rule="evenodd" d="M1107.86 506.315H1201.03V504.668H1107.86V506.315Z" fill="#415680"/>
<path fill-rule="evenodd" clip-rule="evenodd" d="M1107.86 512.451H1201.03V510.804H1107.86V512.451Z" fill="#415680"/>
<path fill-rule="evenodd" clip-rule="evenodd" d="M1107.86 518.586H1201.03V516.939H1107.86V518.586Z" fill="#415680"/>
<path fill-rule="evenodd" clip-rule="evenodd" d="M1107.86 524.721H1201.03V523.074H1107.86V524.721Z" fill="#415680"/>
<path fill-rule="evenodd" clip-rule="evenodd" d="M1107.86 530.857H1201.03V529.21H1107.86V530.857Z" fill="#415680"/>
<path fill-rule="evenodd" clip-rule="evenodd" d="M1107.86 536.992H1201.03V535.345H1107.86V536.992Z" fill="#415680"/>
<path fill-rule="evenodd" clip-rule="evenodd" d="M1107.86 543.128H1201.03V541.481H1107.86V543.128Z" fill="#415680"/>
<path fill-rule="evenodd" clip-rule="evenodd" d="M1107.86 549.263H1201.03V547.617H1107.86V549.263Z" fill="#415680"/>
<path fill-rule="evenodd" clip-rule="evenodd" d="M1107.86 555.398H1201.03V553.752H1107.86V555.398Z" fill="#415680"/>
<path fill-rule="evenodd" clip-rule="evenodd" d="M1107.86 561.534H1201.03V559.887H1107.86V561.534Z" fill="#415680"/>
<path fill-rule="evenodd" clip-rule="evenodd" d="M1107.86 567.669H1201.03V566.022H1107.86V567.669Z" fill="#415680"/>
<path fill-rule="evenodd" clip-rule="evenodd" d="M967.408 551.906H992.376V476.635H967.408V551.906Z" fill="#2E3E5C"/>
<path fill-rule="evenodd" clip-rule="evenodd" d="M967.408 551.906H973.184V476.635H967.408V551.906Z" fill="#F7CE8F"/>
<path fill-rule="evenodd" clip-rule="evenodd" d="M1010.99 573.804H1035.96V476.635H1010.99V573.804Z" fill="#2E3E5C"/>
<path fill-rule="evenodd" clip-rule="evenodd" d="M1010.99 573.804H1016.77V476.635H1010.99V573.804Z" fill="#F7CE8F"/>
<path fill-rule="evenodd" clip-rule="evenodd" d="M1109.93 454.878H1152.13V398.656H1109.93V454.878Z" fill="#F7CE8F"/>
<path fill-rule="evenodd" clip-rule="evenodd" d="M1118.55 454.878H1143.51V414.351H1118.55V454.878Z" fill="#2E3E5C"/>
<path fill-rule="evenodd" clip-rule="evenodd" d="M1137.66 454.878H1143.51V414.351H1137.66V454.878Z" fill="white"/>
<mask id="mask8" mask-type="alpha" maskUnits="userSpaceOnUse" x="1071" y="398" width="39" height="57">
<path fill-rule="evenodd" clip-rule="evenodd" d="M1109.93 398.656H1071.34L1109.93 454.878V398.656Z" fill="white"/>
</mask>
<g mask="url(#mask8)">
<path fill-rule="evenodd" clip-rule="evenodd" d="M1109.93 398.656H1071.34L1109.93 454.878V398.656Z" fill="url(#paint8_linear)"/>
</g>
<path fill-rule="evenodd" clip-rule="evenodd" d="M978.775 551.906H992.376V488.983H978.775V551.906Z" fill="#36A9E1"/>
<path fill-rule="evenodd" clip-rule="evenodd" d="M1022.35 573.804H1035.96V488.983H1022.35V573.804Z" fill="#36A9E1"/>
<path fill-rule="evenodd" clip-rule="evenodd" d="M1016.77 501.827H1035.96V498.533H1016.77V501.827Z" fill="white"/>
<path fill-rule="evenodd" clip-rule="evenodd" d="M973.184 501.827H992.376V498.533H973.184V501.827Z" fill="white"/>
<path fill-rule="evenodd" clip-rule="evenodd" d="M1124.06 454.878H1137.66V426.698H1124.06V454.878Z" fill="#36A9E1"/>
<path fill-rule="evenodd" clip-rule="evenodd" d="M878.212 573.804H875.744V546.974H879.682L878.212 573.804Z" fill="white"/>
<path fill-rule="evenodd" clip-rule="evenodd" d="M893.137 573.804H890.796L886.535 546.974H890.474L893.137 573.804Z" fill="white"/>
<path fill-rule="evenodd" clip-rule="evenodd" d="M893.181 524.008H891.117L886.535 546.974H890.474L893.181 524.008Z" fill="white"/>
<path fill-rule="evenodd" clip-rule="evenodd" d="M875.744 551.96H890.474V546.974H875.744V551.96Z" fill="white"/>
<path fill-rule="evenodd" clip-rule="evenodd" d="M883.252 551.96H894.044V546.974H883.252V551.96Z" fill="white"/>
<path fill-rule="evenodd" clip-rule="evenodd" d="M814.618 573.804H812.15V546.974H816.087L814.618 573.804Z" fill="white"/>
<path fill-rule="evenodd" clip-rule="evenodd" d="M829.542 573.804H827.201L822.941 546.974H826.879L829.542 573.804Z" fill="white"/>
<path fill-rule="evenodd" clip-rule="evenodd" d="M829.587 524.008H827.523L822.941 546.974H826.879L829.587 524.008Z" fill="white"/>
<path fill-rule="evenodd" clip-rule="evenodd" d="M812.15 551.96H826.879V546.974H812.15V551.96Z" fill="white"/>
<path fill-rule="evenodd" clip-rule="evenodd" d="M806.706 551.96H883.252V546.974H806.706V551.96Z" fill="white"/>
<path fill-rule="evenodd" clip-rule="evenodd" d="M819.93 528.994H896.476L897.379 524.008H820.833L819.93 528.994Z" fill="white"/>
<path fill-rule="evenodd" clip-rule="evenodd" d="M818.542 536.649H895.089L895.992 531.663H819.446L818.542 536.649Z" fill="white"/>
<mask id="mask9" mask-type="alpha" maskUnits="userSpaceOnUse" x="709" y="363" width="151" height="143">
<path fill-rule="evenodd" clip-rule="evenodd" d="M854.08 410.475C850.998 405.492 844.748 400.739 836.839 399.581C823.652 397.652 828.178 383.023 816.715 379.152C804.628 375.068 803.609 384.805 772.698 367.251C764.056 362.342 748.029 360.802 740.914 370.129C736.749 375.587 735.729 383.526 736.952 390.135C738.128 396.496 742.881 405.677 737.717 411.393C732.812 416.822 724.185 415.104 718.212 418.551C712.142 422.052 709.802 429.13 709.71 435.797C709.493 451.369 716.163 468.159 726.04 480.04C746.626 504.8 783.721 510.72 813.013 500.057C830.322 493.756 843.865 480.925 851.769 464.316C859.291 448.51 863.878 426.328 854.08 410.475Z" fill="white"/>
</mask>
<g mask="url(#mask9)">
<path fill-rule="evenodd" clip-rule="evenodd" d="M854.08 410.475C850.998 405.492 844.748 400.739 836.839 399.581C823.652 397.652 828.178 383.023 816.715 379.152C804.628 375.068 803.609 384.805 772.698 367.251C764.056 362.342 748.029 360.802 740.914 370.129C736.749 375.587 735.729 383.526 736.952 390.135C738.128 396.496 742.881 405.677 737.717 411.393C732.812 416.822 724.185 415.104 718.212 418.551C712.142 422.052 709.802 429.13 709.71 435.797C709.493 451.369 716.163 468.159 726.04 480.04C746.626 504.8 783.721 510.72 813.013 500.057C830.322 493.756 843.865 480.925 851.769 464.316C859.291 448.51 863.878 426.328 854.08 410.475Z" fill="url(#paint9_linear)"/>
</g>
<mask id="mask10" mask-type="alpha" maskUnits="userSpaceOnUse" x="709" y="363" width="102" height="125">
<path fill-rule="evenodd" clip-rule="evenodd" d="M808.18 378.078C801.654 378.387 794.852 379.84 772.695 367.247C764.059 362.343 748.034 360.805 740.912 370.131C736.753 375.589 735.729 383.526 736.956 390.138C738.128 396.494 742.884 405.68 737.713 411.396C732.808 416.822 724.182 415.102 718.212 418.553C712.145 422.056 709.799 429.128 709.714 435.793C709.49 451.367 716.165 468.16 726.038 480.038C726.987 481.181 727.968 482.281 728.991 483.338C766.17 503.602 739.248 441.818 751.659 430.601C759.517 423.498 774.882 433.561 781.844 428.573C785.32 426.084 785.043 421.159 782.334 417.41C773.975 405.861 760.541 393.567 767.184 386.58C770.734 382.842 777.803 384.893 791.12 384.936C806.506 384.979 814.438 381.004 808.18 378.078Z" fill="white"/>
</mask>
<g mask="url(#mask10)">
<path fill-rule="evenodd" clip-rule="evenodd" d="M808.18 378.078C801.654 378.387 794.852 379.84 772.695 367.247C764.059 362.343 748.034 360.805 740.912 370.131C736.753 375.589 735.729 383.526 736.956 390.138C738.128 396.494 742.884 405.68 737.713 411.396C732.808 416.822 724.182 415.102 718.212 418.553C712.145 422.056 709.799 429.128 709.714 435.793C709.49 451.367 716.165 468.16 726.038 480.038C726.987 481.181 727.968 482.281 728.991 483.338C766.17 503.602 739.248 441.818 751.659 430.601C759.517 423.498 774.882 433.561 781.844 428.573C785.32 426.084 785.043 421.159 782.334 417.41C773.975 405.861 760.541 393.567 767.184 386.58C770.734 382.842 777.803 384.893 791.12 384.936C806.506 384.979 814.438 381.004 808.18 378.078Z" fill="url(#paint10_linear)"/>
</g>
<path fill-rule="evenodd" clip-rule="evenodd" d="M791.526 573.804H783.903L783.595 523.608L775.245 445.513L777.24 442.976L788.126 519.185L795.875 469.027L797.745 470.972L790.128 528.031L791.526 573.804Z" fill="#2E3E5C"/>
<path fill-rule="evenodd" clip-rule="evenodd" d="M811.34 464.886L793.569 491.146V488.983L810.329 463.851L811.34 464.886Z" fill="#2E3E5C"/>
<path fill-rule="evenodd" clip-rule="evenodd" d="M780.37 485.338L765.232 464.799L766.068 463.851L780.689 482.813L780.37 485.338Z" fill="#2E3E5C"/>
<path fill-rule="evenodd" clip-rule="evenodd" d="M784.106 441.597L779.642 466.29L778.644 463.851L783.087 441.287L784.106 441.597Z" fill="#2E3E5C"/>
<mask id="mask11" mask-type="alpha" maskUnits="userSpaceOnUse" x="1230" y="528" width="229" height="46">
<path fill-rule="evenodd" clip-rule="evenodd" d="M1458.22 573.804C1454.34 564.406 1434.97 545.925 1410.4 550.932C1383.56 556.4 1377.66 544.474 1366.6 539.515C1346.35 530.436 1336.37 552.962 1323.72 541.384C1306.04 525.22 1291.72 523.571 1280.3 538.467C1263.88 559.887 1236.98 536.168 1230.93 573.804H1458.22Z" fill="white"/>
</mask>
<g mask="url(#mask11)">
<path fill-rule="evenodd" clip-rule="evenodd" d="M1458.22 573.804C1454.34 564.406 1434.97 545.925 1410.4 550.932C1383.56 556.4 1377.66 544.474 1366.6 539.515C1346.35 530.436 1336.37 552.962 1323.72 541.384C1306.04 525.22 1291.72 523.571 1280.3 538.467C1263.88 559.887 1236.98 536.168 1230.93 573.804H1458.22Z" fill="url(#paint11_linear)"/>
</g>
<mask id="mask12" mask-type="alpha" maskUnits="userSpaceOnUse" x="1310" y="526" width="111" height="48">
<path fill-rule="evenodd" clip-rule="evenodd" d="M1412.5 573.804H1310.12C1310.7 542.416 1318.94 562.566 1318.94 562.566C1318.94 562.566 1321.65 539.627 1327.64 538.697C1333.3 537.819 1335.96 561.202 1335.96 561.202C1335.96 561.202 1342.11 527.794 1350.25 526.505C1357.39 525.375 1351.78 557.466 1351.78 557.466C1351.78 557.466 1355.96 554.168 1361.98 553.92C1368.67 553.645 1365.94 560.162 1365.94 560.162C1365.94 560.162 1374.3 545.651 1379.8 545.925C1386.69 546.267 1381.95 560.977 1381.95 560.977C1381.95 560.977 1387.02 556.132 1392.33 555.449C1402.73 554.114 1391.69 567.442 1391.69 567.442C1391.69 567.442 1399.07 564.415 1411.79 562.492C1424.2 560.615 1421.62 567.71 1412.5 573.804Z" fill="white"/>
</mask>
<g mask="url(#mask12)">
<path fill-rule="evenodd" clip-rule="evenodd" d="M1412.5 573.804H1310.12C1310.7 542.416 1318.94 562.566 1318.94 562.566C1318.94 562.566 1321.65 539.627 1327.64 538.697C1333.3 537.819 1335.96 561.202 1335.96 561.202C1335.96 561.202 1342.11 527.794 1350.25 526.505C1357.39 525.375 1351.78 557.466 1351.78 557.466C1351.78 557.466 1355.96 554.168 1361.98 553.92C1368.67 553.645 1365.94 560.162 1365.94 560.162C1365.94 560.162 1374.3 545.651 1379.8 545.925C1386.69 546.267 1381.95 560.977 1381.95 560.977C1381.95 560.977 1387.02 556.132 1392.33 555.449C1402.73 554.114 1391.69 567.442 1391.69 567.442C1391.69 567.442 1399.07 564.415 1411.79 562.492C1424.2 560.615 1421.62 567.71 1412.5 573.804Z" fill="url(#paint12_linear)"/>
</g>
<mask id="mask13" mask-type="alpha" maskUnits="userSpaceOnUse" x="1258" y="363" width="160" height="144">
<path fill-rule="evenodd" clip-rule="evenodd" d="M1398.46 398.469C1398.77 379.811 1382.19 373.944 1366.12 379.152C1353.97 383.092 1352.98 384.805 1322.19 367.251C1313.59 362.342 1297.57 360.802 1290.39 370.129C1286.18 375.587 1285.11 383.526 1286.28 390.135C1287.41 396.496 1292.1 405.677 1286.89 411.393C1281.95 416.822 1273.33 415.104 1267.33 418.551C1261.24 422.052 1258.85 429.13 1258.71 435.797C1258.38 451.369 1264.27 468.734 1274.72 480.04C1295.78 502.84 1332.8 511.65 1367.01 502.929C1442.44 483.702 1414.07 443.103 1405.23 432.339C1395.71 420.766 1398.25 411.332 1398.46 398.469Z" fill="white"/>
</mask>
<g mask="url(#mask13)">
<path fill-rule="evenodd" clip-rule="evenodd" d="M1398.46 398.469C1398.77 379.811 1382.19 373.944 1366.12 379.152C1353.97 383.092 1352.98 384.805 1322.19 367.251C1313.59 362.342 1297.57 360.802 1290.39 370.129C1286.18 375.587 1285.11 383.526 1286.28 390.135C1287.41 396.496 1292.1 405.677 1286.89 411.393C1281.95 416.822 1273.33 415.104 1267.33 418.551C1261.24 422.052 1258.85 429.13 1258.71 435.797C1258.38 451.369 1264.27 468.734 1274.72 480.04C1295.78 502.84 1332.8 511.65 1367.01 502.929C1442.44 483.702 1414.07 443.103 1405.23 432.339C1395.71 420.766 1398.25 411.332 1398.46 398.469Z" fill="url(#paint13_linear)"/>
</g>
<mask id="mask14" mask-type="alpha" maskUnits="userSpaceOnUse" x="1258" y="363" width="110" height="127">
<path fill-rule="evenodd" clip-rule="evenodd" d="M1367.06 378.879C1366.75 378.965 1366.43 379.06 1366.12 379.156C1353.97 383.088 1352.98 384.808 1322.19 367.247C1313.58 362.343 1297.57 360.805 1290.4 370.131C1286.18 375.589 1285.1 383.526 1286.28 390.138C1287.41 396.494 1292.09 405.68 1286.89 411.396C1281.95 416.822 1273.34 415.102 1267.34 418.553C1261.24 422.056 1258.85 429.128 1258.7 435.793C1258.38 451.367 1264.92 468.16 1274.72 480.038C1276.01 481.608 1277.37 483.104 1278.8 484.524C1312.58 505.088 1277.46 460.672 1305.34 442.33C1319.12 433.25 1345.73 423.712 1334.15 409.26C1325.69 398.694 1319.27 394.581 1321.85 388.771C1323.27 385.566 1327.41 382.554 1340.49 384.936C1358.38 388.204 1371.45 381.849 1367.06 378.879Z" fill="white"/>
</mask>
<g mask="url(#mask14)">
<path fill-rule="evenodd" clip-rule="evenodd" d="M1367.06 378.879C1366.75 378.965 1366.43 379.06 1366.12 379.156C1353.97 383.088 1352.98 384.808 1322.19 367.247C1313.58 362.343 1297.57 360.805 1290.4 370.131C1286.18 375.589 1285.1 383.526 1286.28 390.138C1287.41 396.494 1292.09 405.68 1286.89 411.396C1281.95 416.822 1273.34 415.102 1267.34 418.553C1261.24 422.056 1258.85 429.128 1258.7 435.793C1258.38 451.367 1264.92 468.16 1274.72 480.038C1276.01 481.608 1277.37 483.104 1278.8 484.524C1312.58 505.088 1277.46 460.672 1305.34 442.33C1319.12 433.25 1345.73 423.712 1334.15 409.26C1325.69 398.694 1319.27 394.581 1321.85 388.771C1323.27 385.566 1327.41 382.554 1340.49 384.936C1358.38 388.204 1371.45 381.849 1367.06 378.879Z" fill="url(#paint14_linear)"/>
</g>
<path fill-rule="evenodd" clip-rule="evenodd" d="M1337.93 573.804H1345.56L1344.89 523.608L1346.52 441.597L1344.55 439.06L1340.39 519.185L1329.12 469.949L1327.23 471.895L1338.33 528.031L1337.93 573.804Z" fill="#2E3E5C"/>
<path fill-rule="evenodd" clip-rule="evenodd" d="M1357.74 453.037L1344.78 472.396L1344.76 476.258L1359.09 454.193L1357.74 453.037Z" fill="#2E3E5C"/>
<path fill-rule="evenodd" clip-rule="evenodd" d="M1338.47 445.677L1344.14 457.194L1344.12 459.682L1337.61 446.035L1338.47 445.677Z" fill="#2E3E5C"/>
<path fill-rule="evenodd" clip-rule="evenodd" d="M1321.2 476.507L1330.74 485.065L1331.53 487.257L1320.38 477.107L1321.2 476.507Z" fill="#2E3E5C"/>
<path fill-rule="evenodd" clip-rule="evenodd" d="M1304.87 573.804C1302.24 567.245 1299.53 562.456 1297.31 562.99C1295.12 563.516 1294.52 567.893 1294.76 573.804H1304.87Z" fill="#3FC3D1"/>
<g filter="url(#filter0_d)">
<circle cx="1183.5" cy="289.5" r="34.5" fill="white"/>
</g>
<path fill-rule="evenodd" clip-rule="evenodd" d="M1184 274L1174 286H1194L1184 274Z" fill="#B6ECEB"/>
<path d="M1170.2 300.009H1174.6C1175.04 300.009 1175.37 300.099 1175.6 300.279C1175.84 300.459 1175.95 300.703 1175.95 301.013C1175.95 301.288 1175.86 301.522 1175.67 301.713C1175.49 301.904 1175.22 302 1174.85 302H1168.64C1168.21 302 1167.88 301.885 1167.65 301.654C1167.41 301.418 1167.29 301.142 1167.29 300.827C1167.29 300.625 1167.37 300.358 1167.52 300.026C1167.67 299.688 1167.84 299.424 1168.02 299.233C1168.77 298.456 1169.44 297.793 1170.04 297.241C1170.65 296.684 1171.08 296.319 1171.34 296.144C1171.8 295.818 1172.18 295.492 1172.48 295.166C1172.79 294.834 1173.03 294.496 1173.18 294.153C1173.35 293.804 1173.43 293.464 1173.43 293.132C1173.43 292.772 1173.34 292.452 1173.17 292.17C1173 291.883 1172.76 291.661 1172.47 291.504C1172.17 291.346 1171.85 291.268 1171.5 291.268C1170.77 291.268 1170.19 291.591 1169.77 292.238C1169.71 292.322 1169.61 292.553 1169.48 292.93C1169.35 293.307 1169.2 293.596 1169.03 293.799C1168.87 294.001 1168.63 294.103 1168.31 294.103C1168.03 294.103 1167.79 294.01 1167.61 293.824C1167.42 293.638 1167.33 293.385 1167.33 293.065C1167.33 292.677 1167.41 292.272 1167.59 291.85C1167.76 291.428 1168.02 291.045 1168.37 290.702C1168.71 290.359 1169.15 290.083 1169.68 289.875C1170.22 289.662 1170.84 289.555 1171.55 289.555C1172.42 289.555 1173.15 289.69 1173.76 289.96C1174.15 290.14 1174.5 290.387 1174.79 290.702C1175.09 291.017 1175.32 291.383 1175.49 291.799C1175.66 292.21 1175.74 292.637 1175.74 293.082C1175.74 293.779 1175.57 294.415 1175.22 294.988C1174.87 295.557 1174.52 296.004 1174.16 296.33C1173.8 296.651 1173.2 297.157 1172.35 297.849C1171.5 298.541 1170.92 299.078 1170.61 299.46C1170.47 299.612 1170.34 299.795 1170.2 300.009ZM1184.62 291.715H1180.61L1180.13 294.448C1180.93 294.021 1181.66 293.807 1182.34 293.807C1182.88 293.807 1183.38 293.908 1183.85 294.111C1184.32 294.313 1184.73 294.595 1185.09 294.955C1185.44 295.309 1185.72 295.731 1185.92 296.22C1186.13 296.71 1186.23 297.236 1186.23 297.798C1186.23 298.614 1186.04 299.356 1185.68 300.026C1185.31 300.695 1184.78 301.227 1184.09 301.62C1183.41 302.014 1182.61 302.211 1181.71 302.211C1180.71 302.211 1179.89 302.025 1179.26 301.654C1178.63 301.283 1178.19 300.858 1177.92 300.38C1177.67 299.896 1177.54 299.474 1177.54 299.114C1177.54 298.895 1177.63 298.687 1177.81 298.49C1177.99 298.293 1178.22 298.195 1178.5 298.195C1178.97 298.195 1179.32 298.468 1179.55 299.013C1179.78 299.514 1180.08 299.905 1180.46 300.186C1180.85 300.462 1181.27 300.599 1181.75 300.599C1182.18 300.599 1182.56 300.487 1182.89 300.262C1183.21 300.037 1183.46 299.728 1183.64 299.334C1183.82 298.94 1183.91 298.493 1183.91 297.992C1183.91 297.452 1183.81 296.991 1183.62 296.608C1183.43 296.226 1183.17 295.942 1182.85 295.756C1182.53 295.565 1182.17 295.469 1181.78 295.469C1181.3 295.469 1180.95 295.528 1180.74 295.647C1180.53 295.765 1180.23 295.973 1179.84 296.271C1179.45 296.563 1179.13 296.71 1178.88 296.71C1178.6 296.71 1178.36 296.611 1178.14 296.414C1177.93 296.212 1177.82 295.984 1177.82 295.731C1177.82 295.703 1177.85 295.512 1177.92 295.157L1178.63 291.116C1178.7 290.632 1178.85 290.28 1179.06 290.061C1179.28 289.842 1179.63 289.732 1180.11 289.732H1184.57C1185.44 289.732 1185.88 290.067 1185.88 290.736C1185.88 291.028 1185.77 291.265 1185.56 291.445C1185.35 291.625 1185.03 291.715 1184.62 291.715ZM1192.6 292.803C1192.6 293.878 1192.36 294.676 1191.89 295.199C1191.42 295.723 1190.77 295.984 1189.95 295.984C1189.44 295.984 1188.99 295.874 1188.58 295.655C1188.18 295.43 1187.87 295.081 1187.64 294.609C1187.42 294.136 1187.31 293.56 1187.31 292.879C1187.31 292.148 1187.39 291.538 1187.57 291.048C1187.74 290.559 1188.02 290.188 1188.41 289.934C1188.81 289.681 1189.31 289.555 1189.91 289.555C1190.35 289.555 1190.74 289.622 1191.07 289.757C1191.4 289.892 1191.68 290.1 1191.91 290.382C1192.14 290.657 1192.32 290.995 1192.43 291.394C1192.54 291.793 1192.6 292.263 1192.6 292.803ZM1191.02 292.719C1191.02 291.982 1190.94 291.448 1190.78 291.116C1190.63 290.778 1190.35 290.609 1189.95 290.609C1189.68 290.609 1189.46 290.691 1189.3 290.854C1189.14 291.012 1189.03 291.248 1188.97 291.563C1188.91 291.872 1188.89 292.269 1188.89 292.753C1188.89 293.253 1188.91 293.661 1188.97 293.976C1189.03 294.291 1189.14 294.53 1189.3 294.693C1189.46 294.851 1189.67 294.929 1189.95 294.929C1190.36 294.929 1190.65 294.752 1190.79 294.398C1190.94 294.043 1191.02 293.484 1191.02 292.719ZM1201.24 298.903C1201.24 299.978 1201 300.777 1200.53 301.3C1200.06 301.823 1199.41 302.084 1198.59 302.084C1198.08 302.084 1197.62 301.972 1197.21 301.747C1196.81 301.522 1196.5 301.176 1196.27 300.709C1196.04 300.242 1195.93 299.666 1195.93 298.979C1195.93 297.883 1196.14 297.058 1196.55 296.507C1196.98 295.95 1197.64 295.672 1198.55 295.672C1198.99 295.672 1199.38 295.739 1199.7 295.874C1200.03 296.009 1200.32 296.212 1200.55 296.482C1200.78 296.752 1200.96 297.089 1201.07 297.494C1201.18 297.894 1201.24 298.363 1201.24 298.903ZM1199.66 298.819C1199.66 298.093 1199.58 297.565 1199.42 297.233C1199.27 296.895 1198.99 296.727 1198.59 296.727C1198.31 296.727 1198.09 296.805 1197.93 296.963C1197.77 297.12 1197.66 297.354 1197.59 297.663C1197.53 297.967 1197.5 298.363 1197.5 298.853C1197.5 299.607 1197.58 300.158 1197.74 300.507C1197.9 300.855 1198.18 301.03 1198.59 301.03C1199 301.03 1199.28 300.853 1199.43 300.498C1199.58 300.138 1199.66 299.578 1199.66 298.819ZM1198.23 290.668L1191.2 302C1191.02 302.309 1190.81 302.464 1190.59 302.464C1190.46 302.464 1190.33 302.413 1190.2 302.312C1190.07 302.217 1190.01 302.09 1190.01 301.933C1190.01 301.814 1190.06 301.671 1190.18 301.502L1197.25 290.078C1197.37 289.87 1197.48 289.715 1197.57 289.614C1197.66 289.507 1197.8 289.453 1197.97 289.453C1198.14 289.453 1198.28 289.504 1198.38 289.605C1198.48 289.701 1198.54 289.83 1198.54 289.993C1198.54 290.112 1198.43 290.337 1198.23 290.668Z" fill="#454F5B"/>
<g filter="url(#filter1_d)">
<circle cx="974.5" cy="279.5" r="38.5" fill="white"/>
</g>
<path fill-rule="evenodd" clip-rule="evenodd" d="M975 262L964 275H986L975 262Z" fill="#007ACE"/>
<path d="M960.638 284.703C961.213 284.703 961.706 284.534 962.119 284.197C962.538 283.859 962.747 283.375 962.747 282.744C962.747 282.263 962.581 281.85 962.25 281.506C961.919 281.156 961.472 280.981 960.909 280.981C960.528 280.981 960.213 281.034 959.963 281.141C959.719 281.247 959.525 281.388 959.381 281.563C959.238 281.738 959.1 281.963 958.969 282.238C958.844 282.513 958.728 282.772 958.622 283.016C958.559 283.147 958.447 283.25 958.284 283.325C958.122 283.4 957.934 283.438 957.722 283.438C957.472 283.438 957.241 283.338 957.028 283.138C956.822 282.931 956.719 282.659 956.719 282.322C956.719 281.997 956.816 281.656 957.009 281.3C957.209 280.938 957.497 280.594 957.872 280.269C958.253 279.944 958.725 279.684 959.288 279.491C959.85 279.291 960.478 279.191 961.172 279.191C961.778 279.191 962.331 279.275 962.831 279.444C963.331 279.606 963.766 279.844 964.134 280.156C964.503 280.469 964.781 280.831 964.969 281.244C965.156 281.656 965.25 282.1 965.25 282.575C965.25 283.2 965.113 283.738 964.838 284.188C964.569 284.631 964.181 285.066 963.675 285.491C964.163 285.753 964.572 286.053 964.903 286.391C965.241 286.728 965.494 287.103 965.663 287.516C965.831 287.922 965.916 288.363 965.916 288.838C965.916 289.406 965.8 289.956 965.569 290.488C965.344 291.019 965.009 291.494 964.566 291.913C964.122 292.325 963.594 292.65 962.981 292.888C962.375 293.119 961.703 293.234 960.966 293.234C960.216 293.234 959.544 293.1 958.95 292.831C958.356 292.563 957.866 292.228 957.478 291.828C957.097 291.422 956.806 291.003 956.606 290.572C956.413 290.141 956.316 289.784 956.316 289.503C956.316 289.141 956.431 288.85 956.663 288.631C956.9 288.406 957.194 288.294 957.544 288.294C957.719 288.294 957.888 288.347 958.05 288.453C958.213 288.553 958.319 288.675 958.369 288.819C958.694 289.688 959.041 290.334 959.409 290.759C959.784 291.178 960.309 291.388 960.984 291.388C961.372 291.388 961.744 291.294 962.1 291.106C962.463 290.913 962.759 290.628 962.991 290.253C963.228 289.878 963.347 289.444 963.347 288.95C963.347 288.219 963.147 287.647 962.747 287.234C962.347 286.816 961.791 286.606 961.078 286.606C960.953 286.606 960.759 286.619 960.497 286.644C960.234 286.669 960.066 286.681 959.991 286.681C959.647 286.681 959.381 286.597 959.194 286.428C959.006 286.253 958.913 286.013 958.913 285.706C958.913 285.406 959.025 285.166 959.25 284.984C959.475 284.797 959.809 284.703 960.253 284.703H960.638ZM977.297 286.259C977.297 287.284 977.234 288.166 977.109 288.903C976.984 289.641 976.753 290.309 976.416 290.909C975.991 291.647 975.441 292.216 974.766 292.616C974.091 293.016 973.341 293.216 972.516 293.216C971.566 293.216 970.713 292.947 969.956 292.409C969.206 291.872 968.641 291.128 968.259 290.178C968.066 289.659 967.922 289.088 967.828 288.463C967.741 287.831 967.697 287.15 967.697 286.419C967.697 285.475 967.747 284.625 967.847 283.869C967.947 283.113 968.103 282.463 968.316 281.919C968.684 281.019 969.219 280.334 969.919 279.866C970.625 279.391 971.466 279.153 972.441 279.153C973.084 279.153 973.669 279.259 974.194 279.472C974.719 279.678 975.178 279.984 975.572 280.391C975.972 280.791 976.309 281.288 976.584 281.881C977.059 282.913 977.297 284.372 977.297 286.259ZM974.728 286.072C974.728 284.928 974.659 283.994 974.522 283.269C974.384 282.538 974.153 281.988 973.828 281.619C973.503 281.244 973.053 281.056 972.478 281.056C971.653 281.056 971.078 281.472 970.753 282.303C970.434 283.134 970.275 284.416 970.275 286.147C970.275 287.322 970.344 288.284 970.481 289.034C970.619 289.784 970.85 290.353 971.175 290.741C971.5 291.122 971.941 291.313 972.497 291.313C973.072 291.313 973.522 291.113 973.847 290.713C974.172 290.313 974.4 289.741 974.531 288.997C974.663 288.253 974.728 287.278 974.728 286.072ZM984.553 282.781C984.553 283.975 984.291 284.863 983.766 285.444C983.241 286.025 982.522 286.316 981.609 286.316C981.047 286.316 980.541 286.194 980.091 285.95C979.647 285.7 979.3 285.313 979.05 284.788C978.8 284.263 978.675 283.622 978.675 282.866C978.675 282.053 978.772 281.375 978.966 280.831C979.159 280.288 979.472 279.875 979.903 279.594C980.341 279.313 980.897 279.172 981.572 279.172C982.059 279.172 982.488 279.247 982.856 279.397C983.225 279.547 983.538 279.778 983.794 280.091C984.05 280.397 984.241 280.772 984.366 281.216C984.491 281.659 984.553 282.181 984.553 282.781ZM982.8 282.688C982.8 281.869 982.713 281.275 982.538 280.906C982.363 280.531 982.053 280.344 981.609 280.344C981.309 280.344 981.069 280.434 980.888 280.616C980.713 280.791 980.591 281.053 980.522 281.403C980.459 281.747 980.428 282.188 980.428 282.725C980.428 283.281 980.459 283.734 980.522 284.084C980.591 284.434 980.713 284.7 980.888 284.881C981.063 285.056 981.303 285.144 981.609 285.144C982.072 285.144 982.384 284.947 982.547 284.553C982.716 284.159 982.8 283.538 982.8 282.688ZM994.153 289.559C994.153 290.753 993.891 291.641 993.366 292.222C992.841 292.803 992.122 293.094 991.209 293.094C990.641 293.094 990.131 292.969 989.681 292.719C989.238 292.469 988.888 292.084 988.631 291.566C988.381 291.047 988.256 290.406 988.256 289.644C988.256 288.425 988.488 287.509 988.95 286.897C989.419 286.278 990.159 285.969 991.172 285.969C991.659 285.969 992.084 286.044 992.447 286.194C992.816 286.344 993.128 286.569 993.384 286.869C993.647 287.169 993.841 287.544 993.966 287.994C994.091 288.438 994.153 288.959 994.153 289.559ZM992.4 289.466C992.4 288.659 992.312 288.072 992.137 287.703C991.962 287.328 991.653 287.141 991.209 287.141C990.897 287.141 990.653 287.228 990.478 287.403C990.303 287.578 990.178 287.838 990.103 288.181C990.034 288.519 990 288.959 990 289.503C990 290.341 990.088 290.953 990.263 291.341C990.444 291.728 990.759 291.922 991.209 291.922C991.666 291.922 991.978 291.725 992.147 291.331C992.316 290.931 992.4 290.309 992.4 289.466ZM990.806 280.409L982.997 293C982.797 293.344 982.572 293.516 982.322 293.516C982.178 293.516 982.034 293.459 981.891 293.347C981.747 293.241 981.675 293.1 981.675 292.925C981.675 292.794 981.738 292.634 981.863 292.447L989.719 279.753C989.856 279.522 989.975 279.35 990.075 279.238C990.181 279.119 990.331 279.059 990.525 279.059C990.713 279.059 990.863 279.116 990.975 279.228C991.094 279.334 991.153 279.478 991.153 279.659C991.153 279.791 991.037 280.041 990.806 280.409Z" fill="#454F5B"/>
<g opacity="0.5">
<g filter="url(#filter2_d)">
<circle cx="1003.95" cy="175.95" r="26.95" fill="white"/>
</g>
<g clip-path="url(#clip0)">
<path fill-rule="evenodd" clip-rule="evenodd" d="M1004.3 163.7L996.6 172.8H1012L1004.3 163.7Z" fill="#007ACE"/>
<path d="M994.358 184.901V178.929C993.247 179.782 992.498 180.209 992.113 180.209C991.93 180.209 991.766 180.137 991.621 179.992C991.481 179.843 991.411 179.673 991.411 179.48C991.411 179.257 991.481 179.093 991.621 178.988C991.761 178.883 992.008 178.748 992.363 178.581C992.892 178.332 993.314 178.069 993.629 177.794C993.949 177.518 994.231 177.21 994.476 176.868C994.721 176.527 994.881 176.317 994.955 176.238C995.029 176.16 995.169 176.12 995.375 176.12C995.607 176.12 995.793 176.21 995.933 176.389C996.073 176.569 996.143 176.816 996.143 177.131V184.645C996.143 185.524 995.843 185.964 995.244 185.964C994.977 185.964 994.762 185.874 994.601 185.695C994.439 185.516 994.358 185.251 994.358 184.901ZM1001.56 184.251H1004.98C1005.32 184.251 1005.58 184.321 1005.76 184.461C1005.94 184.601 1006.03 184.792 1006.03 185.032C1006.03 185.247 1005.96 185.428 1005.82 185.577C1005.68 185.726 1005.46 185.8 1005.17 185.8H1000.34C1000.01 185.8 999.759 185.71 999.575 185.531C999.391 185.347 999.299 185.133 999.299 184.888C999.299 184.73 999.358 184.523 999.477 184.264C999.595 184.002 999.724 183.796 999.864 183.648C1000.45 183.044 1000.97 182.528 1001.44 182.099C1001.91 181.666 1002.24 181.381 1002.44 181.246C1002.8 180.992 1003.1 180.738 1003.34 180.484C1003.58 180.226 1003.76 179.964 1003.88 179.697C1004.01 179.426 1004.07 179.161 1004.07 178.903C1004.07 178.623 1004 178.373 1003.87 178.155C1003.74 177.932 1003.55 177.759 1003.32 177.636C1003.09 177.514 1002.85 177.453 1002.57 177.453C1002 177.453 1001.55 177.704 1001.22 178.207C1001.18 178.273 1001.1 178.452 1001 178.745C1000.9 179.038 1000.78 179.264 1000.65 179.421C1000.52 179.579 1000.34 179.658 1000.09 179.658C999.868 179.658 999.687 179.585 999.542 179.441C999.398 179.297 999.326 179.1 999.326 178.85C999.326 178.548 999.393 178.233 999.529 177.905C999.665 177.577 999.866 177.28 1000.13 177.013C1000.4 176.746 1000.75 176.532 1001.16 176.37C1001.57 176.203 1002.06 176.12 1002.61 176.12C1003.28 176.12 1003.85 176.225 1004.33 176.435C1004.63 176.575 1004.9 176.768 1005.13 177.013C1005.37 177.258 1005.54 177.542 1005.67 177.866C1005.8 178.185 1005.87 178.518 1005.87 178.863C1005.87 179.406 1005.73 179.9 1005.46 180.347C1005.19 180.788 1004.92 181.136 1004.64 181.39C1004.36 181.639 1003.89 182.033 1003.23 182.571C1002.57 183.109 1002.12 183.527 1001.88 183.825C1001.77 183.943 1001.67 184.085 1001.56 184.251ZM1010.99 178.647C1010.99 179.483 1010.8 180.104 1010.44 180.511C1010.07 180.918 1009.57 181.121 1008.93 181.121C1008.53 181.121 1008.18 181.036 1007.86 180.865C1007.55 180.69 1007.31 180.419 1007.13 180.051C1006.96 179.684 1006.87 179.235 1006.87 178.706C1006.87 178.137 1006.94 177.663 1007.08 177.282C1007.21 176.901 1007.43 176.613 1007.73 176.416C1008.04 176.219 1008.43 176.12 1008.9 176.12C1009.24 176.12 1009.54 176.173 1009.8 176.278C1010.06 176.383 1010.28 176.545 1010.46 176.763C1010.63 176.978 1010.77 177.24 1010.86 177.551C1010.94 177.862 1010.99 178.227 1010.99 178.647ZM1009.76 178.581C1009.76 178.008 1009.7 177.593 1009.58 177.334C1009.45 177.072 1009.24 176.941 1008.93 176.941C1008.72 176.941 1008.55 177.004 1008.42 177.131C1008.3 177.253 1008.21 177.437 1008.17 177.682C1008.12 177.923 1008.1 178.231 1008.1 178.608C1008.1 178.997 1008.12 179.314 1008.17 179.559C1008.21 179.804 1008.3 179.99 1008.42 180.117C1008.54 180.239 1008.71 180.301 1008.93 180.301C1009.25 180.301 1009.47 180.163 1009.58 179.887C1009.7 179.612 1009.76 179.176 1009.76 178.581ZM1017.71 183.392C1017.71 184.227 1017.52 184.848 1017.16 185.255C1016.79 185.662 1016.29 185.866 1015.65 185.866C1015.25 185.866 1014.89 185.778 1014.58 185.603C1014.27 185.428 1014.02 185.159 1013.84 184.796C1013.67 184.433 1013.58 183.984 1013.58 183.451C1013.58 182.598 1013.74 181.957 1014.06 181.528C1014.39 181.095 1014.91 180.878 1015.62 180.878C1015.96 180.878 1016.26 180.931 1016.51 181.036C1016.77 181.141 1016.99 181.298 1017.17 181.508C1017.35 181.718 1017.49 181.981 1017.58 182.296C1017.66 182.606 1017.71 182.972 1017.71 183.392ZM1016.48 183.326C1016.48 182.762 1016.42 182.35 1016.3 182.092C1016.17 181.83 1015.96 181.698 1015.65 181.698C1015.43 181.698 1015.26 181.76 1015.13 181.882C1015.01 182.005 1014.92 182.186 1014.87 182.427C1014.82 182.663 1014.8 182.972 1014.8 183.352C1014.8 183.938 1014.86 184.367 1014.98 184.638C1015.11 184.91 1015.33 185.045 1015.65 185.045C1015.97 185.045 1016.18 184.908 1016.3 184.632C1016.42 184.352 1016.48 183.917 1016.48 183.326ZM1015.36 176.987L1009.9 185.8C1009.76 186.041 1009.6 186.161 1009.43 186.161C1009.32 186.161 1009.22 186.122 1009.12 186.043C1009.02 185.968 1008.97 185.87 1008.97 185.748C1008.97 185.656 1009.02 185.544 1009.1 185.413L1014.6 176.527C1014.7 176.365 1014.78 176.245 1014.85 176.166C1014.93 176.083 1015.03 176.042 1015.17 176.042C1015.3 176.042 1015.4 176.081 1015.48 176.16C1015.57 176.234 1015.61 176.335 1015.61 176.462C1015.61 176.553 1015.53 176.728 1015.36 176.987Z" fill="#454F5B"/>
</g>
</g>
<g filter="url(#filter3_d)">
<circle cx="1069.19" cy="226.185" r="31.185" fill="white"/>
</g>
<path fill-rule="evenodd" clip-rule="evenodd" d="M1070 212L1061 222H1078L1070 212Z" fill="#FFC48B"/>
<path d="M1058.09 236.5V229.589C1056.8 230.577 1055.93 231.07 1055.49 231.07C1055.28 231.07 1055.09 230.987 1054.92 230.82C1054.76 230.647 1054.68 230.45 1054.68 230.227C1054.68 229.969 1054.76 229.779 1054.92 229.658C1055.08 229.536 1055.37 229.379 1055.78 229.187C1056.39 228.898 1056.88 228.595 1057.24 228.276C1057.61 227.957 1057.94 227.6 1058.22 227.205C1058.51 226.81 1058.69 226.567 1058.78 226.476C1058.86 226.385 1059.02 226.339 1059.26 226.339C1059.53 226.339 1059.75 226.443 1059.91 226.651C1060.07 226.858 1060.15 227.144 1060.15 227.509V236.203C1060.15 237.221 1059.8 237.73 1059.11 237.73C1058.8 237.73 1058.55 237.626 1058.37 237.418C1058.18 237.211 1058.09 236.905 1058.09 236.5ZM1063.99 229.232C1063.99 228.726 1064.12 228.25 1064.4 227.805C1064.67 227.354 1065.08 226.995 1065.61 226.726C1066.15 226.458 1066.77 226.324 1067.49 226.324C1068.09 226.324 1068.62 226.402 1069.07 226.559C1069.53 226.716 1069.91 226.934 1070.21 227.212C1070.52 227.486 1070.74 227.797 1070.89 228.147C1071.04 228.491 1071.11 228.858 1071.11 229.248C1071.11 229.744 1070.98 230.187 1070.72 230.577C1070.47 230.966 1070.09 231.285 1069.58 231.533C1070.01 231.7 1070.37 231.921 1070.65 232.194C1070.94 232.462 1071.15 232.776 1071.29 233.136C1071.44 233.49 1071.51 233.885 1071.51 234.32C1071.51 234.958 1071.36 235.538 1071.05 236.059C1070.74 236.576 1070.29 236.981 1069.69 237.274C1069.09 237.568 1068.39 237.715 1067.58 237.715C1066.74 237.715 1066.02 237.568 1065.42 237.274C1064.82 236.981 1064.37 236.578 1064.07 236.067C1063.77 235.55 1063.61 234.973 1063.61 234.335C1063.61 232.974 1064.26 232.04 1065.54 231.533C1064.5 231.047 1063.99 230.28 1063.99 229.232ZM1069.43 234.259C1069.43 233.865 1069.35 233.52 1069.19 233.227C1069.03 232.933 1068.8 232.708 1068.5 232.551C1068.21 232.394 1067.88 232.315 1067.52 232.315C1067 232.315 1066.57 232.488 1066.22 232.832C1065.87 233.176 1065.69 233.657 1065.69 234.275C1065.69 234.67 1065.78 235.019 1065.94 235.323C1066.1 235.621 1066.33 235.854 1066.61 236.021C1066.9 236.183 1067.21 236.264 1067.56 236.264C1067.92 236.264 1068.24 236.181 1068.52 236.014C1068.8 235.847 1069.03 235.611 1069.19 235.307C1069.35 235.004 1069.43 234.654 1069.43 234.259ZM1067.53 227.774C1067.06 227.774 1066.67 227.924 1066.38 228.222C1066.09 228.516 1065.94 228.896 1065.94 229.362C1065.94 229.792 1066.09 230.151 1066.39 230.44C1066.69 230.723 1067.08 230.865 1067.55 230.865C1067.79 230.865 1068 230.827 1068.19 230.751C1068.39 230.675 1068.56 230.571 1068.69 230.44C1068.84 230.303 1068.94 230.144 1069.02 229.961C1069.1 229.774 1069.13 229.569 1069.13 229.346C1069.13 229.048 1069.07 228.779 1068.93 228.541C1068.8 228.303 1068.61 228.116 1068.37 227.979C1068.12 227.843 1067.85 227.774 1067.53 227.774ZM1077.33 229.263C1077.33 230.23 1077.12 230.949 1076.69 231.419C1076.26 231.89 1075.68 232.126 1074.94 232.126C1074.49 232.126 1074.08 232.027 1073.71 231.829C1073.35 231.627 1073.07 231.313 1072.87 230.888C1072.67 230.463 1072.57 229.944 1072.57 229.331C1072.57 228.673 1072.65 228.124 1072.8 227.683C1072.96 227.243 1073.21 226.909 1073.56 226.681C1073.92 226.453 1074.37 226.339 1074.91 226.339C1075.31 226.339 1075.65 226.4 1075.95 226.521C1076.25 226.643 1076.51 226.83 1076.71 227.083C1076.92 227.331 1077.07 227.635 1077.18 227.995C1077.28 228.354 1077.33 228.777 1077.33 229.263ZM1075.91 229.187C1075.91 228.524 1075.84 228.043 1075.7 227.744C1075.55 227.44 1075.3 227.288 1074.94 227.288C1074.7 227.288 1074.51 227.362 1074.36 227.509C1074.22 227.65 1074.12 227.863 1074.06 228.147C1074.01 228.425 1073.99 228.782 1073.99 229.217C1073.99 229.668 1074.01 230.035 1074.06 230.318C1074.12 230.602 1074.22 230.817 1074.36 230.964C1074.5 231.106 1074.7 231.176 1074.94 231.176C1075.32 231.176 1075.57 231.017 1075.7 230.698C1075.84 230.379 1075.91 229.875 1075.91 229.187ZM1085.1 234.753C1085.1 235.72 1084.89 236.439 1084.47 236.91C1084.04 237.381 1083.46 237.616 1082.72 237.616C1082.26 237.616 1081.85 237.515 1081.48 237.312C1081.12 237.11 1080.84 236.798 1080.63 236.378C1080.43 235.958 1080.33 235.439 1080.33 234.821C1080.33 233.834 1080.51 233.093 1080.89 232.596C1081.27 232.095 1081.87 231.845 1082.69 231.845C1083.08 231.845 1083.43 231.905 1083.72 232.027C1084.02 232.148 1084.27 232.331 1084.48 232.574C1084.69 232.817 1084.85 233.12 1084.95 233.485C1085.05 233.844 1085.1 234.267 1085.1 234.753ZM1083.68 234.677C1083.68 234.024 1083.61 233.548 1083.47 233.25C1083.33 232.946 1083.08 232.794 1082.72 232.794C1082.47 232.794 1082.27 232.865 1082.13 233.007C1081.99 233.148 1081.88 233.358 1081.82 233.637C1081.77 233.91 1081.74 234.267 1081.74 234.708C1081.74 235.386 1081.81 235.882 1081.95 236.196C1082.1 236.51 1082.36 236.667 1082.72 236.667C1083.09 236.667 1083.34 236.507 1083.48 236.188C1083.62 235.864 1083.68 235.361 1083.68 234.677ZM1082.39 227.342L1076.07 237.54C1075.91 237.818 1075.72 237.958 1075.52 237.958C1075.4 237.958 1075.29 237.912 1075.17 237.821C1075.05 237.735 1075 237.621 1075 237.479C1075 237.373 1075.05 237.244 1075.15 237.092L1081.51 226.81C1081.62 226.623 1081.72 226.483 1081.8 226.392C1081.89 226.296 1082.01 226.248 1082.17 226.248C1082.32 226.248 1082.44 226.294 1082.53 226.385C1082.63 226.471 1082.67 226.587 1082.67 226.734C1082.67 226.84 1082.58 227.043 1082.39 227.342Z" fill="#454F5B"/>
<g opacity="0.5">
<g filter="url(#filter4_d)">
<circle cx="1167.19" cy="200.185" r="31.185" fill="white"/>
</g>
<path fill-rule="evenodd" clip-rule="evenodd" d="M1168 186L1159 196H1176L1168 186Z" fill="#FFC48B"/>
<path d="M1156.09 210.5V203.589C1154.8 204.577 1153.93 205.07 1153.49 205.07C1153.28 205.07 1153.09 204.987 1152.92 204.82C1152.76 204.647 1152.68 204.45 1152.68 204.227C1152.68 203.969 1152.76 203.779 1152.92 203.658C1153.08 203.536 1153.37 203.379 1153.78 203.187C1154.39 202.898 1154.88 202.595 1155.24 202.276C1155.61 201.957 1155.94 201.6 1156.22 201.205C1156.51 200.81 1156.69 200.567 1156.78 200.476C1156.86 200.385 1157.02 200.339 1157.26 200.339C1157.53 200.339 1157.75 200.443 1157.91 200.651C1158.07 200.858 1158.15 201.144 1158.15 201.509V210.203C1158.15 211.221 1157.8 211.73 1157.11 211.73C1156.8 211.73 1156.55 211.626 1156.37 211.418C1156.18 211.211 1156.09 210.905 1156.09 210.5ZM1164.42 209.748H1168.38C1168.77 209.748 1169.08 209.829 1169.28 209.991C1169.49 210.153 1169.59 210.373 1169.59 210.652C1169.59 210.9 1169.51 211.11 1169.34 211.282C1169.18 211.454 1168.93 211.54 1168.6 211.54H1163.01C1162.63 211.54 1162.34 211.436 1162.12 211.229C1161.91 211.016 1161.8 210.768 1161.8 210.484C1161.8 210.302 1161.87 210.062 1162.01 209.763C1162.15 209.459 1162.29 209.221 1162.46 209.049C1163.13 208.351 1163.74 207.753 1164.28 207.257C1164.82 206.756 1165.21 206.427 1165.44 206.27C1165.86 205.976 1166.2 205.683 1166.47 205.389C1166.75 205.09 1166.96 204.787 1167.1 204.478C1167.25 204.164 1167.32 203.858 1167.32 203.559C1167.32 203.235 1167.25 202.946 1167.09 202.693C1166.94 202.435 1166.73 202.235 1166.46 202.093C1166.2 201.952 1165.91 201.881 1165.59 201.881C1164.93 201.881 1164.41 202.172 1164.03 202.754C1163.98 202.83 1163.89 203.038 1163.77 203.377C1163.65 203.716 1163.52 203.977 1163.37 204.159C1163.22 204.341 1163 204.432 1162.71 204.432C1162.46 204.432 1162.25 204.349 1162.08 204.182C1161.92 204.015 1161.83 203.787 1161.83 203.498C1161.83 203.149 1161.91 202.784 1162.07 202.405C1162.23 202.025 1162.46 201.681 1162.77 201.372C1163.08 201.063 1163.48 200.815 1163.95 200.628C1164.43 200.435 1165 200.339 1165.64 200.339C1166.41 200.339 1167.07 200.461 1167.62 200.704C1167.97 200.866 1168.29 201.088 1168.55 201.372C1168.82 201.655 1169.03 201.985 1169.18 202.359C1169.33 202.729 1169.4 203.113 1169.4 203.513C1169.4 204.141 1169.25 204.713 1168.93 205.23C1168.63 205.741 1168.31 206.143 1167.98 206.437C1167.66 206.726 1167.12 207.181 1166.35 207.804C1165.59 208.427 1165.07 208.91 1164.79 209.254C1164.67 209.391 1164.54 209.555 1164.42 209.748ZM1175.33 203.263C1175.33 204.23 1175.12 204.949 1174.69 205.419C1174.26 205.89 1173.68 206.126 1172.94 206.126C1172.49 206.126 1172.08 206.027 1171.71 205.829C1171.35 205.627 1171.07 205.313 1170.87 204.888C1170.67 204.463 1170.57 203.944 1170.57 203.331C1170.57 202.673 1170.65 202.124 1170.8 201.683C1170.96 201.243 1171.21 200.909 1171.56 200.681C1171.92 200.453 1172.37 200.339 1172.91 200.339C1173.31 200.339 1173.65 200.4 1173.95 200.521C1174.25 200.643 1174.51 200.83 1174.71 201.083C1174.92 201.331 1175.07 201.635 1175.18 201.995C1175.28 202.354 1175.33 202.777 1175.33 203.263ZM1173.91 203.187C1173.91 202.524 1173.84 202.043 1173.7 201.744C1173.55 201.44 1173.3 201.288 1172.94 201.288C1172.7 201.288 1172.51 201.362 1172.36 201.509C1172.22 201.65 1172.12 201.863 1172.06 202.147C1172.01 202.425 1171.99 202.782 1171.99 203.217C1171.99 203.668 1172.01 204.035 1172.06 204.318C1172.12 204.602 1172.22 204.817 1172.36 204.964C1172.5 205.106 1172.7 205.176 1172.94 205.176C1173.32 205.176 1173.57 205.017 1173.7 204.698C1173.84 204.379 1173.91 203.875 1173.91 203.187ZM1183.1 208.753C1183.1 209.72 1182.89 210.439 1182.47 210.91C1182.04 211.381 1181.46 211.616 1180.72 211.616C1180.26 211.616 1179.85 211.515 1179.48 211.312C1179.12 211.11 1178.84 210.798 1178.63 210.378C1178.43 209.958 1178.33 209.439 1178.33 208.821C1178.33 207.834 1178.51 207.093 1178.89 206.596C1179.27 206.095 1179.87 205.845 1180.69 205.845C1181.08 205.845 1181.43 205.905 1181.72 206.027C1182.02 206.148 1182.27 206.331 1182.48 206.574C1182.69 206.817 1182.85 207.12 1182.95 207.485C1183.05 207.844 1183.1 208.267 1183.1 208.753ZM1181.68 208.677C1181.68 208.024 1181.61 207.548 1181.47 207.25C1181.33 206.946 1181.08 206.794 1180.72 206.794C1180.47 206.794 1180.27 206.865 1180.13 207.007C1179.99 207.148 1179.88 207.358 1179.82 207.637C1179.77 207.91 1179.74 208.267 1179.74 208.708C1179.74 209.386 1179.81 209.882 1179.95 210.196C1180.1 210.51 1180.36 210.667 1180.72 210.667C1181.09 210.667 1181.34 210.507 1181.48 210.188C1181.62 209.864 1181.68 209.361 1181.68 208.677ZM1180.39 201.342L1174.07 211.54C1173.91 211.818 1173.72 211.958 1173.52 211.958C1173.4 211.958 1173.29 211.912 1173.17 211.821C1173.05 211.735 1173 211.621 1173 211.479C1173 211.373 1173.05 211.244 1173.15 211.092L1179.51 200.81C1179.62 200.623 1179.72 200.483 1179.8 200.392C1179.89 200.296 1180.01 200.248 1180.17 200.248C1180.32 200.248 1180.44 200.294 1180.53 200.385C1180.63 200.471 1180.67 200.587 1180.67 200.734C1180.67 200.84 1180.58 201.043 1180.39 201.342Z" fill="#454F5B"/>
</g>
<g filter="url(#filter5_d)">
<circle cx="1126" cy="149" r="27" fill="white"/>
</g>
<path fill-rule="evenodd" clip-rule="evenodd" d="M1126 137L1118 146H1133L1126 137Z" fill="#95CDB1"/>
<path d="M1116.06 158.101V152.129C1114.95 152.982 1114.2 153.409 1113.81 153.409C1113.63 153.409 1113.47 153.337 1113.32 153.192C1113.18 153.043 1113.11 152.873 1113.11 152.68C1113.11 152.457 1113.18 152.293 1113.32 152.188C1113.46 152.083 1113.71 151.948 1114.06 151.781C1114.59 151.532 1115.01 151.269 1115.33 150.994C1115.65 150.718 1115.93 150.41 1116.18 150.068C1116.42 149.727 1116.58 149.517 1116.66 149.438C1116.73 149.36 1116.87 149.32 1117.08 149.32C1117.31 149.32 1117.49 149.41 1117.63 149.589C1117.77 149.769 1117.84 150.016 1117.84 150.331V157.845C1117.84 158.724 1117.54 159.164 1116.94 159.164C1116.68 159.164 1116.46 159.074 1116.3 158.895C1116.14 158.716 1116.06 158.451 1116.06 158.101ZM1127.61 154.282C1127.61 154.999 1127.56 155.616 1127.48 156.132C1127.39 156.648 1127.23 157.117 1126.99 157.537C1126.69 158.053 1126.31 158.451 1125.84 158.731C1125.36 159.011 1124.84 159.151 1124.26 159.151C1123.6 159.151 1123 158.963 1122.47 158.587C1121.94 158.21 1121.55 157.69 1121.28 157.025C1121.15 156.662 1121.05 156.261 1120.98 155.824C1120.92 155.382 1120.89 154.905 1120.89 154.393C1120.89 153.733 1120.92 153.138 1120.99 152.608C1121.06 152.079 1121.17 151.624 1121.32 151.243C1121.58 150.613 1121.95 150.134 1122.44 149.806C1122.94 149.473 1123.53 149.307 1124.21 149.307C1124.66 149.307 1125.07 149.382 1125.44 149.53C1125.8 149.675 1126.12 149.889 1126.4 150.173C1126.68 150.453 1126.92 150.801 1127.11 151.217C1127.44 151.939 1127.61 152.96 1127.61 154.282ZM1125.81 154.15C1125.81 153.35 1125.76 152.696 1125.67 152.188C1125.57 151.676 1125.41 151.291 1125.18 151.033C1124.95 150.771 1124.64 150.639 1124.23 150.639C1123.66 150.639 1123.25 150.93 1123.03 151.512C1122.8 152.094 1122.69 152.991 1122.69 154.203C1122.69 155.025 1122.74 155.699 1122.84 156.224C1122.93 156.749 1123.09 157.147 1123.32 157.418C1123.55 157.685 1123.86 157.819 1124.25 157.819C1124.65 157.819 1124.97 157.679 1125.19 157.399C1125.42 157.119 1125.58 156.718 1125.67 156.198C1125.76 155.677 1125.81 154.995 1125.81 154.15ZM1132.69 151.847C1132.69 152.683 1132.5 153.304 1132.14 153.711C1131.77 154.118 1131.27 154.321 1130.63 154.321C1130.23 154.321 1129.88 154.236 1129.56 154.065C1129.25 153.89 1129.01 153.619 1128.83 153.251C1128.66 152.884 1128.57 152.435 1128.57 151.906C1128.57 151.337 1128.64 150.863 1128.78 150.482C1128.91 150.101 1129.13 149.813 1129.43 149.616C1129.74 149.419 1130.13 149.32 1130.6 149.32C1130.94 149.32 1131.24 149.373 1131.5 149.478C1131.76 149.583 1131.98 149.745 1132.16 149.963C1132.33 150.178 1132.47 150.44 1132.56 150.751C1132.64 151.062 1132.69 151.427 1132.69 151.847ZM1131.46 151.781C1131.46 151.208 1131.4 150.793 1131.28 150.534C1131.15 150.272 1130.94 150.141 1130.63 150.141C1130.42 150.141 1130.25 150.204 1130.12 150.331C1130 150.453 1129.91 150.637 1129.87 150.882C1129.82 151.123 1129.8 151.431 1129.8 151.808C1129.8 152.197 1129.82 152.514 1129.87 152.759C1129.91 153.004 1130 153.19 1130.12 153.317C1130.24 153.439 1130.41 153.501 1130.63 153.501C1130.95 153.501 1131.17 153.363 1131.28 153.087C1131.4 152.812 1131.46 152.376 1131.46 151.781ZM1139.41 156.592C1139.41 157.427 1139.22 158.048 1138.86 158.455C1138.49 158.862 1137.99 159.066 1137.35 159.066C1136.95 159.066 1136.59 158.978 1136.28 158.803C1135.97 158.628 1135.72 158.359 1135.54 157.996C1135.37 157.633 1135.28 157.184 1135.28 156.651C1135.28 155.798 1135.44 155.157 1135.76 154.728C1136.09 154.295 1136.61 154.078 1137.32 154.078C1137.66 154.078 1137.96 154.131 1138.21 154.236C1138.47 154.341 1138.69 154.498 1138.87 154.708C1139.05 154.918 1139.19 155.181 1139.28 155.496C1139.36 155.806 1139.41 156.172 1139.41 156.592ZM1138.18 156.526C1138.18 155.962 1138.12 155.55 1138 155.292C1137.87 155.03 1137.66 154.898 1137.35 154.898C1137.13 154.898 1136.96 154.96 1136.83 155.082C1136.71 155.205 1136.62 155.386 1136.57 155.627C1136.52 155.863 1136.5 156.172 1136.5 156.552C1136.5 157.138 1136.56 157.567 1136.68 157.838C1136.81 158.11 1137.03 158.245 1137.35 158.245C1137.67 158.245 1137.88 158.108 1138 157.832C1138.12 157.552 1138.18 157.117 1138.18 156.526ZM1137.06 150.187L1131.6 159C1131.46 159.241 1131.3 159.361 1131.13 159.361C1131.02 159.361 1130.92 159.322 1130.82 159.243C1130.72 159.168 1130.67 159.07 1130.67 158.948C1130.67 158.856 1130.72 158.744 1130.8 158.613L1136.3 149.727C1136.4 149.565 1136.48 149.445 1136.55 149.366C1136.63 149.283 1136.73 149.242 1136.87 149.242C1137 149.242 1137.1 149.281 1137.18 149.36C1137.27 149.434 1137.31 149.535 1137.31 149.662C1137.31 149.753 1137.23 149.928 1137.06 150.187Z" fill="#454F5B"/>
</g>
<defs>
<filter id="filter0_d" x="1142" y="253" width="83" height="83" filterUnits="userSpaceOnUse" color-interpolation-filters="sRGB">
<feFlood flood-opacity="0" result="BackgroundImageFix"/>
<feColorMatrix in="SourceAlpha" type="matrix" values="0 0 0 0 0 0 0 0 0 0 0 0 0 0 0 0 0 0 127 0" result="hardAlpha"/>
<feOffset dy="5"/>
<feGaussianBlur stdDeviation="3.5"/>
<feColorMatrix type="matrix" values="0 0 0 0 0.644186 0 0 0 0 0.644186 0 0 0 0 0.644186 0 0 0 0.213825 0"/>
<feBlend mode="normal" in2="BackgroundImageFix" result="effect1_dropShadow"/>
<feBlend mode="normal" in="SourceGraphic" in2="effect1_dropShadow" result="shape"/>
</filter>
<filter id="filter1_d" x="928" y="239" width="93" height="93" filterUnits="userSpaceOnUse" color-interpolation-filters="sRGB">
<feFlood flood-opacity="0" result="BackgroundImageFix"/>
<feColorMatrix in="SourceAlpha" type="matrix" values="0 0 0 0 0 0 0 0 0 0 0 0 0 0 0 0 0 0 127 0" result="hardAlpha"/>
<feOffset dy="6"/>
<feGaussianBlur stdDeviation="4"/>
<feColorMatrix type="matrix" values="0 0 0 0 0.644186 0 0 0 0 0.644186 0 0 0 0 0.644186 0 0 0 0.213825 0"/>
<feBlend mode="normal" in2="BackgroundImageFix" result="effect1_dropShadow"/>
<feBlend mode="normal" in="SourceGraphic" in2="effect1_dropShadow" result="shape"/>
</filter>
<filter id="filter2_d" x="971" y="147" width="65.9" height="65.9" filterUnits="userSpaceOnUse" color-interpolation-filters="sRGB">
<feFlood flood-opacity="0" result="BackgroundImageFix"/>
<feColorMatrix in="SourceAlpha" type="matrix" values="0 0 0 0 0 0 0 0 0 0 0 0 0 0 0 0 0 0 127 0" result="hardAlpha"/>
<feOffset dy="4"/>
<feGaussianBlur stdDeviation="3"/>
<feColorMatrix type="matrix" values="0 0 0 0 0.644186 0 0 0 0 0.644186 0 0 0 0 0.644186 0 0 0 0.213825 0"/>
<feBlend mode="normal" in2="BackgroundImageFix" result="effect1_dropShadow"/>
<feBlend mode="normal" in="SourceGraphic" in2="effect1_dropShadow" result="shape"/>
</filter>
<filter id="filter3_d" x="1032" y="193" width="74.37" height="74.37" filterUnits="userSpaceOnUse" color-interpolation-filters="sRGB">
<feFlood flood-opacity="0" result="BackgroundImageFix"/>
<feColorMatrix in="SourceAlpha" type="matrix" values="0 0 0 0 0 0 0 0 0 0 0 0 0 0 0 0 0 0 127 0" result="hardAlpha"/>
<feOffset dy="4"/>
<feGaussianBlur stdDeviation="3"/>
<feColorMatrix type="matrix" values="0 0 0 0 0.644186 0 0 0 0 0.644186 0 0 0 0 0.644186 0 0 0 0.213825 0"/>
<feBlend mode="normal" in2="BackgroundImageFix" result="effect1_dropShadow"/>
<feBlend mode="normal" in="SourceGraphic" in2="effect1_dropShadow" result="shape"/>
</filter>
<filter id="filter4_d" x="1130" y="167" width="74.37" height="74.37" filterUnits="userSpaceOnUse" color-interpolation-filters="sRGB">
<feFlood flood-opacity="0" result="BackgroundImageFix"/>
<feColorMatrix in="SourceAlpha" type="matrix" values="0 0 0 0 0 0 0 0 0 0 0 0 0 0 0 0 0 0 127 0" result="hardAlpha"/>
<feOffset dy="4"/>
<feGaussianBlur stdDeviation="3"/>
<feColorMatrix type="matrix" values="0 0 0 0 0.644186 0 0 0 0 0.644186 0 0 0 0 0.644186 0 0 0 0.213825 0"/>
<feBlend mode="normal" in2="BackgroundImageFix" result="effect1_dropShadow"/>
<feBlend mode="normal" in="SourceGraphic" in2="effect1_dropShadow" result="shape"/>
</filter>
<filter id="filter5_d" x="1093" y="120" width="66" height="66" filterUnits="userSpaceOnUse" color-interpolation-filters="sRGB">
<feFlood flood-opacity="0" result="BackgroundImageFix"/>
<feColorMatrix in="SourceAlpha" type="matrix" values="0 0 0 0 0 0 0 0 0 0 0 0 0 0 0 0 0 0 127 0" result="hardAlpha"/>
<feOffset dy="4"/>
<feGaussianBlur stdDeviation="3"/>
<feColorMatrix type="matrix" values="0 0 0 0 0.644186 0 0 0 0 0.644186 0 0 0 0 0.644186 0 0 0 0.213825 0"/>
<feBlend mode="normal" in2="BackgroundImageFix" result="effect1_dropShadow"/>
<feBlend mode="normal" in="SourceGraphic" in2="effect1_dropShadow" result="shape"/>
</filter>
<linearGradient id="paint0_linear" x1="1942.28" y1="536.359" x2="1900.13" y2="245.472" gradientUnits="userSpaceOnUse">
<stop stop-color="#1C8EB8"/>
<stop offset="1" stop-color="#C5F9FF"/>
</linearGradient>
<linearGradient id="paint1_linear" x1="1038.06" y1="568.858" x2="1032.41" y2="460.434" gradientUnits="userSpaceOnUse">
<stop stop-color="#0B5C79"/>
<stop offset="1" stop-color="#3EC3D1"/>
</linearGradient>
<linearGradient id="paint2_linear" x1="844.151" y1="570.565" x2="823.132" y2="506.996" gradientUnits="userSpaceOnUse">
<stop stop-color="#3EC3D1"/>
<stop offset="1" stop-color="#6CE2EF"/>
</linearGradient>
<linearGradient id="paint3_linear" x1="1347.28" y1="402.895" x2="1226.61" y2="367.846" gradientUnits="userSpaceOnUse">
<stop stop-color="#0A6373"/>
<stop offset="1" stop-color="#3ED1D1"/>
</linearGradient>
<linearGradient id="paint4_linear" x1="895.179" y1="486.393" x2="1035.88" y2="577.066" gradientUnits="userSpaceOnUse">
<stop stop-color="white"/>
<stop offset="1" stop-color="#FFE8B8"/>
</linearGradient>
<linearGradient id="paint5_linear" x1="961.832" y1="507.75" x2="1071.59" y2="672.71" gradientUnits="userSpaceOnUse">
<stop stop-color="white"/>
<stop offset="1" stop-color="#FFE8B8"/>
</linearGradient>
<linearGradient id="paint6_linear" x1="1372.8" y1="634.188" x2="1390.53" y2="483.879" gradientUnits="userSpaceOnUse">
<stop stop-color="#F7CE8F"/>
<stop offset="1" stop-color="#D97D61"/>
</linearGradient>
<linearGradient id="paint7_linear" x1="1249.72" y1="473.886" x2="1254" y2="342.659" gradientUnits="userSpaceOnUse">
<stop stop-color="#D95E36"/>
<stop offset="1" stop-color="#80331A"/>
</linearGradient>
<linearGradient id="paint8_linear" x1="1066.91" y1="403.163" x2="1100.81" y2="424.851" gradientUnits="userSpaceOnUse">
<stop stop-color="white"/>
<stop offset="1" stop-color="#FFE8B8"/>
</linearGradient>
<linearGradient id="paint9_linear" x1="880.531" y1="475.705" x2="829.494" y2="348.674" gradientUnits="userSpaceOnUse">
<stop stop-color="#0A6373"/>
<stop offset="1" stop-color="#3ED1D1"/>
</linearGradient>
<linearGradient id="paint10_linear" x1="822.293" y1="437.564" x2="762.003" y2="352.405" gradientUnits="userSpaceOnUse">
<stop stop-color="#3EC3D1"/>
<stop offset="1" stop-color="#6CE2EF"/>
</linearGradient>
<linearGradient id="paint11_linear" x1="1583.44" y1="580.732" x2="1583.28" y2="485.025" gradientUnits="userSpaceOnUse">
<stop stop-color="#0B5C79"/>
<stop offset="1" stop-color="#3EC3D1"/>
</linearGradient>
<linearGradient id="paint12_linear" x1="1345.19" y1="596.753" x2="1374.77" y2="536.238" gradientUnits="userSpaceOnUse">
<stop stop-color="#3EC3D1"/>
<stop offset="1" stop-color="#6CE2EF"/>
</linearGradient>
<linearGradient id="paint13_linear" x1="1444.34" y1="469.901" x2="1382.6" y2="341.644" gradientUnits="userSpaceOnUse">
<stop stop-color="#0A6373"/>
<stop offset="1" stop-color="#3ED1D1"/>
</linearGradient>
<linearGradient id="paint14_linear" x1="1369.88" y1="424.785" x2="1309.28" y2="362.147" gradientUnits="userSpaceOnUse">
<stop stop-color="#3EC3D1"/>
<stop offset="1" stop-color="#6CE2EF"/>
</linearGradient>
<clipPath id="clip0">
<rect width="28" height="26" fill="white" transform="translate(990.3 163.7)"/>
</clipPath>
</defs>
</svg>
