<svg width="396" height="373" viewBox="0 0 396 373" fill="none" xmlns="http://www.w3.org/2000/svg">
<g opacity="0.7">
<g filter="url(#filter0_d)">
<circle cx="209" cy="296" r="52" fill="white"/>
</g>
<path fill-rule="evenodd" clip-rule="evenodd" d="M210 273L195 291H225L210 273Z" fill="#B6ECEB"/>
<path d="M189.794 313.013H196.401C197.059 313.013 197.561 313.148 197.907 313.418C198.253 313.688 198.426 314.055 198.426 314.519C198.426 314.933 198.287 315.283 198.008 315.57C197.738 315.857 197.325 316 196.768 316H187.453C186.82 316 186.327 315.827 185.972 315.481C185.618 315.127 185.441 314.713 185.441 314.241C185.441 313.937 185.555 313.536 185.782 313.038C186.01 312.532 186.259 312.136 186.529 311.849C187.651 310.684 188.664 309.689 189.567 308.862C190.469 308.027 191.115 307.478 191.503 307.217C192.195 306.727 192.769 306.238 193.224 305.748C193.688 305.251 194.038 304.744 194.275 304.23C194.519 303.707 194.642 303.196 194.642 302.698C194.642 302.158 194.511 301.677 194.249 301.255C193.996 300.825 193.646 300.492 193.199 300.256C192.76 300.019 192.279 299.901 191.756 299.901C190.651 299.901 189.782 300.386 189.149 301.357C189.065 301.483 188.921 301.829 188.719 302.395C188.525 302.96 188.301 303.394 188.048 303.698C187.803 304.002 187.44 304.154 186.959 304.154C186.538 304.154 186.187 304.015 185.909 303.736C185.63 303.458 185.491 303.078 185.491 302.597C185.491 302.015 185.622 301.407 185.884 300.775C186.145 300.142 186.533 299.568 187.048 299.053C187.571 298.539 188.229 298.125 189.022 297.813C189.824 297.492 190.76 297.332 191.832 297.332C193.123 297.332 194.224 297.535 195.135 297.94C195.726 298.21 196.245 298.581 196.692 299.053C197.139 299.526 197.485 300.074 197.73 300.699C197.983 301.315 198.11 301.956 198.11 302.622C198.11 303.669 197.848 304.622 197.325 305.483C196.81 306.335 196.283 307.006 195.743 307.495C195.203 307.976 194.296 308.735 193.022 309.773C191.756 310.811 190.887 311.617 190.415 312.19C190.212 312.418 190.005 312.693 189.794 313.013ZM211.424 300.572H205.412L204.691 304.673C205.889 304.031 206.994 303.711 208.007 303.711C208.817 303.711 209.572 303.863 210.272 304.166C210.981 304.47 211.601 304.892 212.133 305.432C212.664 305.964 213.082 306.596 213.386 307.33C213.689 308.065 213.841 308.853 213.841 309.697C213.841 310.921 213.567 312.034 213.019 313.038C212.47 314.043 211.677 314.84 210.639 315.43C209.61 316.021 208.42 316.316 207.07 316.316C205.56 316.316 204.332 316.038 203.387 315.481C202.451 314.924 201.784 314.287 201.388 313.57C200.999 312.844 200.805 312.212 200.805 311.672C200.805 311.343 200.94 311.03 201.21 310.735C201.489 310.44 201.835 310.292 202.248 310.292C202.957 310.292 203.484 310.701 203.83 311.52C204.168 312.271 204.623 312.857 205.197 313.279C205.771 313.692 206.412 313.899 207.121 313.899C207.77 313.899 208.34 313.73 208.829 313.393C209.319 313.055 209.694 312.591 209.956 312.001C210.226 311.41 210.361 310.739 210.361 309.988C210.361 309.178 210.217 308.486 209.93 307.913C209.644 307.339 209.26 306.913 208.779 306.634C208.298 306.348 207.762 306.204 207.171 306.204C206.446 306.204 205.927 306.293 205.615 306.47C205.303 306.647 204.851 306.959 204.26 307.406C203.678 307.845 203.197 308.065 202.818 308.065C202.404 308.065 202.037 307.917 201.717 307.622C201.396 307.318 201.236 306.976 201.236 306.596C201.236 306.554 201.282 306.267 201.375 305.736L202.438 299.673C202.556 298.948 202.775 298.42 203.096 298.091C203.417 297.762 203.94 297.598 204.665 297.598H211.348C212.664 297.598 213.322 298.1 213.322 299.104C213.322 299.543 213.162 299.897 212.841 300.167C212.521 300.437 212.048 300.572 211.424 300.572ZM223.397 302.205C223.397 303.816 223.042 305.014 222.334 305.799C221.625 306.584 220.655 306.976 219.423 306.976C218.663 306.976 217.98 306.812 217.372 306.483C216.773 306.145 216.305 305.622 215.968 304.913C215.63 304.204 215.461 303.34 215.461 302.319C215.461 301.222 215.592 300.306 215.854 299.572C216.115 298.838 216.537 298.281 217.119 297.902C217.71 297.522 218.461 297.332 219.372 297.332C220.03 297.332 220.608 297.433 221.106 297.636C221.604 297.838 222.026 298.15 222.372 298.572C222.718 298.986 222.975 299.492 223.144 300.091C223.312 300.69 223.397 301.395 223.397 302.205ZM221.03 302.078C221.03 300.973 220.912 300.171 220.676 299.673C220.439 299.167 220.022 298.914 219.423 298.914C219.018 298.914 218.693 299.036 218.448 299.281C218.212 299.517 218.047 299.872 217.955 300.344C217.87 300.808 217.828 301.403 217.828 302.129C217.828 302.88 217.87 303.491 217.955 303.964C218.047 304.436 218.212 304.795 218.448 305.04C218.684 305.276 219.009 305.394 219.423 305.394C220.047 305.394 220.469 305.128 220.688 304.597C220.916 304.065 221.03 303.226 221.03 302.078ZM236.357 311.355C236.357 312.967 236.002 314.165 235.294 314.95C234.585 315.734 233.615 316.127 232.383 316.127C231.615 316.127 230.927 315.958 230.32 315.62C229.721 315.283 229.248 314.764 228.902 314.064C228.565 313.363 228.396 312.498 228.396 311.469C228.396 309.824 228.708 308.588 229.333 307.761C229.965 306.925 230.965 306.508 232.332 306.508C232.99 306.508 233.564 306.609 234.053 306.812C234.551 307.014 234.973 307.318 235.319 307.723C235.673 308.128 235.935 308.634 236.104 309.242C236.272 309.841 236.357 310.545 236.357 311.355ZM233.99 311.229C233.99 310.14 233.872 309.347 233.636 308.849C233.399 308.343 232.982 308.09 232.383 308.09C231.961 308.09 231.632 308.208 231.395 308.444C231.159 308.68 230.99 309.031 230.889 309.495C230.796 309.95 230.75 310.545 230.75 311.279C230.75 312.41 230.868 313.237 231.104 313.76C231.349 314.283 231.775 314.545 232.383 314.545C232.999 314.545 233.42 314.279 233.648 313.747C233.876 313.207 233.99 312.368 233.99 311.229ZM231.838 299.003L221.296 316C221.026 316.464 220.722 316.696 220.385 316.696C220.19 316.696 219.996 316.62 219.802 316.468C219.608 316.325 219.511 316.135 219.511 315.899C219.511 315.722 219.596 315.506 219.764 315.253L230.37 298.117C230.556 297.805 230.716 297.573 230.851 297.421C230.995 297.26 231.197 297.18 231.459 297.18C231.712 297.18 231.914 297.256 232.066 297.408C232.227 297.551 232.307 297.745 232.307 297.99C232.307 298.167 232.151 298.505 231.838 299.003Z" fill="#454F5B"/>
</g>
<g opacity="0.8">
<g filter="url(#filter1_d)">
<circle cx="333" cy="302" r="52" fill="white"/>
</g>
<path fill-rule="evenodd" clip-rule="evenodd" d="M334 279L319 297H349L334 279Z" fill="#B6ECEB"/>
<path d="M313.794 319.013H320.401C321.059 319.013 321.561 319.148 321.907 319.418C322.253 319.688 322.426 320.055 322.426 320.519C322.426 320.933 322.287 321.283 322.008 321.57C321.738 321.857 321.325 322 320.768 322H311.453C310.82 322 310.327 321.827 309.972 321.481C309.618 321.127 309.441 320.713 309.441 320.241C309.441 319.937 309.555 319.536 309.782 319.038C310.01 318.532 310.259 318.136 310.529 317.849C311.651 316.684 312.664 315.689 313.567 314.862C314.469 314.027 315.115 313.478 315.503 313.217C316.195 312.727 316.769 312.238 317.224 311.748C317.688 311.251 318.038 310.744 318.275 310.23C318.519 309.707 318.642 309.196 318.642 308.698C318.642 308.158 318.511 307.677 318.249 307.255C317.996 306.825 317.646 306.492 317.199 306.256C316.76 306.019 316.279 305.901 315.756 305.901C314.651 305.901 313.782 306.386 313.149 307.357C313.065 307.483 312.921 307.829 312.719 308.395C312.525 308.96 312.301 309.394 312.048 309.698C311.803 310.002 311.44 310.154 310.959 310.154C310.538 310.154 310.187 310.015 309.909 309.736C309.63 309.458 309.491 309.078 309.491 308.597C309.491 308.015 309.622 307.407 309.884 306.775C310.145 306.142 310.533 305.568 311.048 305.053C311.571 304.539 312.229 304.125 313.022 303.813C313.824 303.492 314.76 303.332 315.832 303.332C317.123 303.332 318.224 303.535 319.135 303.94C319.726 304.21 320.245 304.581 320.692 305.053C321.139 305.526 321.485 306.074 321.73 306.699C321.983 307.315 322.11 307.956 322.11 308.622C322.11 309.669 321.848 310.622 321.325 311.483C320.81 312.335 320.283 313.006 319.743 313.495C319.203 313.976 318.296 314.735 317.022 315.773C315.756 316.811 314.887 317.617 314.415 318.19C314.212 318.418 314.005 318.693 313.794 319.013ZM335.424 306.572H329.412L328.691 310.673C329.889 310.031 330.994 309.711 332.007 309.711C332.817 309.711 333.572 309.863 334.272 310.166C334.981 310.47 335.601 310.892 336.133 311.432C336.664 311.964 337.082 312.596 337.386 313.33C337.689 314.065 337.841 314.853 337.841 315.697C337.841 316.921 337.567 318.034 337.019 319.038C336.47 320.043 335.677 320.84 334.639 321.43C333.61 322.021 332.42 322.316 331.07 322.316C329.56 322.316 328.332 322.038 327.387 321.481C326.451 320.924 325.784 320.287 325.388 319.57C324.999 318.844 324.805 318.212 324.805 317.672C324.805 317.343 324.94 317.03 325.21 316.735C325.489 316.44 325.835 316.292 326.248 316.292C326.957 316.292 327.484 316.701 327.83 317.52C328.168 318.271 328.623 318.857 329.197 319.279C329.771 319.692 330.412 319.899 331.121 319.899C331.77 319.899 332.34 319.73 332.829 319.393C333.319 319.055 333.694 318.591 333.956 318.001C334.226 317.41 334.361 316.739 334.361 315.988C334.361 315.178 334.217 314.486 333.93 313.913C333.644 313.339 333.26 312.913 332.779 312.634C332.298 312.348 331.762 312.204 331.171 312.204C330.446 312.204 329.927 312.293 329.615 312.47C329.303 312.647 328.851 312.959 328.26 313.406C327.678 313.845 327.197 314.065 326.818 314.065C326.404 314.065 326.037 313.917 325.717 313.622C325.396 313.318 325.236 312.976 325.236 312.596C325.236 312.554 325.282 312.267 325.375 311.736L326.438 305.673C326.556 304.948 326.775 304.42 327.096 304.091C327.417 303.762 327.94 303.598 328.665 303.598H335.348C336.664 303.598 337.322 304.1 337.322 305.104C337.322 305.543 337.162 305.897 336.841 306.167C336.521 306.437 336.048 306.572 335.424 306.572ZM347.397 308.205C347.397 309.816 347.042 311.014 346.334 311.799C345.625 312.584 344.655 312.976 343.423 312.976C342.663 312.976 341.98 312.812 341.372 312.483C340.773 312.145 340.305 311.622 339.968 310.913C339.63 310.204 339.461 309.34 339.461 308.319C339.461 307.222 339.592 306.306 339.854 305.572C340.115 304.838 340.537 304.281 341.119 303.902C341.71 303.522 342.461 303.332 343.372 303.332C344.03 303.332 344.608 303.433 345.106 303.636C345.604 303.838 346.026 304.15 346.372 304.572C346.718 304.986 346.975 305.492 347.144 306.091C347.312 306.69 347.397 307.395 347.397 308.205ZM345.03 308.078C345.03 306.973 344.912 306.171 344.676 305.673C344.439 305.167 344.022 304.914 343.423 304.914C343.018 304.914 342.693 305.036 342.448 305.281C342.212 305.517 342.047 305.872 341.955 306.344C341.87 306.808 341.828 307.403 341.828 308.129C341.828 308.88 341.87 309.491 341.955 309.964C342.047 310.436 342.212 310.795 342.448 311.04C342.684 311.276 343.009 311.394 343.423 311.394C344.047 311.394 344.469 311.128 344.688 310.597C344.916 310.065 345.03 309.226 345.03 308.078ZM360.357 317.355C360.357 318.967 360.002 320.165 359.294 320.95C358.585 321.734 357.615 322.127 356.383 322.127C355.615 322.127 354.927 321.958 354.32 321.62C353.721 321.283 353.248 320.764 352.902 320.064C352.565 319.363 352.396 318.498 352.396 317.469C352.396 315.824 352.708 314.588 353.333 313.761C353.965 312.925 354.965 312.508 356.332 312.508C356.99 312.508 357.564 312.609 358.053 312.812C358.551 313.014 358.973 313.318 359.319 313.723C359.673 314.128 359.935 314.634 360.104 315.242C360.272 315.841 360.357 316.545 360.357 317.355ZM357.99 317.229C357.99 316.14 357.872 315.347 357.636 314.849C357.399 314.343 356.982 314.09 356.383 314.09C355.961 314.09 355.632 314.208 355.395 314.444C355.159 314.68 354.99 315.031 354.889 315.495C354.796 315.95 354.75 316.545 354.75 317.279C354.75 318.41 354.868 319.237 355.104 319.76C355.349 320.283 355.775 320.545 356.383 320.545C356.999 320.545 357.42 320.279 357.648 319.747C357.876 319.207 357.99 318.368 357.99 317.229ZM355.838 305.003L345.296 322C345.026 322.464 344.722 322.696 344.385 322.696C344.19 322.696 343.996 322.62 343.802 322.468C343.608 322.325 343.511 322.135 343.511 321.899C343.511 321.722 343.596 321.506 343.764 321.253L354.37 304.117C354.556 303.805 354.716 303.573 354.851 303.421C354.995 303.26 355.197 303.18 355.459 303.18C355.712 303.18 355.914 303.256 356.066 303.408C356.227 303.551 356.307 303.745 356.307 303.99C356.307 304.167 356.151 304.505 355.838 305.003Z" fill="#454F5B"/>
</g>
<g opacity="0.9">
<g filter="url(#filter2_d)">
<circle cx="291" cy="55" r="52" fill="white"/>
</g>
<path fill-rule="evenodd" clip-rule="evenodd" d="M292 32L277 50H307L292 32Z" fill="#B6ECEB"/>
<path d="M271.794 72.0131H278.401C279.059 72.0131 279.561 72.1481 279.907 72.4181C280.253 72.6881 280.426 73.0552 280.426 73.5192C280.426 73.9327 280.287 74.2828 280.008 74.5697C279.738 74.8566 279.325 75 278.768 75H269.453C268.82 75 268.327 74.827 267.972 74.4811C267.618 74.1267 267.441 73.7133 267.441 73.2408C267.441 72.937 267.555 72.5363 267.782 72.0384C268.01 71.5322 268.259 71.1356 268.529 70.8488C269.651 69.6844 270.664 68.6888 271.567 67.8619C272.469 67.0266 273.115 66.4781 273.503 66.2166C274.195 65.7272 274.769 65.2378 275.224 64.7484C275.688 64.2506 276.038 63.7444 276.275 63.2297C276.519 62.7066 276.642 62.1961 276.642 61.6983C276.642 61.1583 276.511 60.6773 276.249 60.2555C275.996 59.8252 275.646 59.4919 275.199 59.2556C274.76 59.0194 274.279 58.9013 273.756 58.9013C272.651 58.9013 271.782 59.3864 271.149 60.3567C271.065 60.4833 270.921 60.8292 270.719 61.3945C270.525 61.9598 270.301 62.3944 270.048 62.6981C269.803 63.0019 269.44 63.1538 268.959 63.1538C268.538 63.1538 268.187 63.0145 267.909 62.7361C267.63 62.4577 267.491 62.078 267.491 61.597C267.491 61.0148 267.622 60.4073 267.884 59.7745C268.145 59.1417 268.533 58.568 269.048 58.0533C269.571 57.5386 270.229 57.1252 271.022 56.813C271.824 56.4923 272.76 56.332 273.832 56.332C275.123 56.332 276.224 56.5345 277.135 56.9395C277.726 57.2095 278.245 57.5808 278.692 58.0533C279.139 58.5258 279.485 59.0742 279.73 59.6986C279.983 60.3145 280.11 60.9558 280.11 61.6223C280.11 62.6686 279.848 63.622 279.325 64.4827C278.81 65.3348 278.283 66.0056 277.743 66.495C277.203 66.9759 276.296 67.7353 275.022 68.7731C273.756 69.8109 272.887 70.6167 272.415 71.1905C272.212 71.4183 272.005 71.6925 271.794 72.0131ZM293.424 59.572H287.412L286.691 63.6727C287.889 63.0314 288.994 62.7108 290.007 62.7108C290.817 62.7108 291.572 62.8627 292.272 63.1664C292.981 63.4702 293.601 63.892 294.133 64.432C294.664 64.9636 295.082 65.5964 295.386 66.3305C295.689 67.0645 295.841 67.8534 295.841 68.6972C295.841 69.9206 295.567 71.0344 295.019 72.0384C294.47 73.0425 293.677 73.8398 292.639 74.4305C291.61 75.0211 290.42 75.3164 289.07 75.3164C287.56 75.3164 286.332 75.038 285.387 74.4811C284.451 73.9242 283.784 73.2872 283.388 72.57C282.999 71.8444 282.805 71.2116 282.805 70.6716C282.805 70.3425 282.94 70.0303 283.21 69.735C283.489 69.4397 283.835 69.292 284.248 69.292C284.957 69.292 285.484 69.7013 285.83 70.5197C286.168 71.2706 286.623 71.857 287.197 72.2789C287.771 72.6923 288.412 72.8991 289.121 72.8991C289.77 72.8991 290.34 72.7303 290.829 72.3928C291.319 72.0553 291.694 71.5913 291.956 71.0006C292.226 70.41 292.361 69.7392 292.361 68.9883C292.361 68.1783 292.217 67.4864 291.93 66.9127C291.644 66.3389 291.26 65.9128 290.779 65.6344C290.298 65.3475 289.762 65.2041 289.171 65.2041C288.446 65.2041 287.927 65.2927 287.615 65.4698C287.303 65.647 286.851 65.9592 286.26 66.4064C285.678 66.8452 285.197 67.0645 284.818 67.0645C284.404 67.0645 284.037 66.9169 283.717 66.6216C283.396 66.3178 283.236 65.9761 283.236 65.5964C283.236 65.5542 283.282 65.2673 283.375 64.7358L284.438 58.6734C284.556 57.9478 284.775 57.4205 285.096 57.0914C285.417 56.7623 285.94 56.5978 286.665 56.5978H293.348C294.664 56.5978 295.322 57.0998 295.322 58.1039C295.322 58.5427 295.162 58.897 294.841 59.167C294.521 59.437 294.048 59.572 293.424 59.572ZM305.397 61.2047C305.397 62.8163 305.042 64.0144 304.334 64.7991C303.625 65.5838 302.655 65.9761 301.423 65.9761C300.663 65.9761 299.98 65.8116 299.372 65.4825C298.773 65.145 298.305 64.6219 297.968 63.9131C297.63 63.2044 297.461 62.3395 297.461 61.3186C297.461 60.2217 297.592 59.3063 297.854 58.5722C298.115 57.8381 298.537 57.2813 299.119 56.9016C299.71 56.5219 300.461 56.332 301.372 56.332C302.03 56.332 302.608 56.4333 303.106 56.6358C303.604 56.8383 304.026 57.1505 304.372 57.5723C304.718 57.9858 304.975 58.492 305.144 59.0911C305.312 59.6902 305.397 60.3947 305.397 61.2047ZM303.03 61.0781C303.03 59.9728 302.912 59.1713 302.676 58.6734C302.439 58.1672 302.022 57.9141 301.423 57.9141C301.018 57.9141 300.693 58.0364 300.448 58.2811C300.212 58.5173 300.047 58.8717 299.955 59.3442C299.87 59.8083 299.828 60.4031 299.828 61.1288C299.828 61.8797 299.87 62.4914 299.955 62.9639C300.047 63.4364 300.212 63.795 300.448 64.0397C300.684 64.2759 301.009 64.3941 301.423 64.3941C302.047 64.3941 302.469 64.1283 302.688 63.5967C302.916 63.0652 303.03 62.2256 303.03 61.0781ZM318.357 70.3552C318.357 71.9667 318.002 73.1648 317.294 73.9495C316.585 74.7342 315.615 75.1266 314.383 75.1266C313.615 75.1266 312.927 74.9578 312.32 74.6203C311.721 74.2828 311.248 73.7639 310.902 73.0636C310.565 72.3633 310.396 71.4984 310.396 70.4691C310.396 68.8238 310.708 67.5877 311.333 66.7608C311.965 65.9255 312.965 65.5078 314.332 65.5078C314.99 65.5078 315.564 65.6091 316.053 65.8116C316.551 66.0141 316.973 66.3178 317.319 66.7228C317.673 67.1278 317.935 67.6341 318.104 68.2416C318.272 68.8406 318.357 69.5452 318.357 70.3552ZM315.99 70.2286C315.99 69.1402 315.872 68.347 315.636 67.8492C315.399 67.343 314.982 67.0898 314.383 67.0898C313.961 67.0898 313.632 67.208 313.395 67.4442C313.159 67.6805 312.99 68.0306 312.889 68.4947C312.796 68.9503 312.75 69.5452 312.75 70.2792C312.75 71.4098 312.868 72.2367 313.104 72.7598C313.349 73.283 313.775 73.5445 314.383 73.5445C314.999 73.5445 315.42 73.2788 315.648 72.7472C315.876 72.2072 315.99 71.3677 315.99 70.2286ZM313.838 58.0027L303.296 75C303.026 75.4641 302.722 75.6961 302.385 75.6961C302.19 75.6961 301.996 75.6202 301.802 75.4683C301.608 75.3248 301.511 75.135 301.511 74.8988C301.511 74.7216 301.596 74.5064 301.764 74.2533L312.37 57.1167C312.556 56.8045 312.716 56.5725 312.851 56.4206C312.995 56.2603 313.197 56.1802 313.459 56.1802C313.712 56.1802 313.914 56.2561 314.066 56.408C314.227 56.5514 314.307 56.7455 314.307 56.9902C314.307 57.1673 314.151 57.5048 313.838 58.0027Z" fill="#454F5B"/>
</g>
<g filter="url(#filter3_d)">
<circle cx="70" cy="274" r="58" fill="white"/>
</g>
<path fill-rule="evenodd" clip-rule="evenodd" d="M71.5 248L55 268H88L71.5 248Z" fill="#007ACE"/>
<path d="M49.9563 282.555C50.8188 282.555 51.5594 282.302 52.1781 281.795C52.8063 281.289 53.1203 280.563 53.1203 279.616C53.1203 278.894 52.8719 278.275 52.375 277.759C51.8781 277.234 51.2078 276.972 50.3641 276.972C49.7922 276.972 49.3188 277.052 48.9438 277.211C48.5781 277.37 48.2875 277.581 48.0719 277.844C47.8563 278.106 47.65 278.444 47.4531 278.856C47.2656 279.269 47.0922 279.658 46.9328 280.023C46.8391 280.22 46.6703 280.375 46.4266 280.488C46.1828 280.6 45.9016 280.656 45.5828 280.656C45.2078 280.656 44.8609 280.506 44.5422 280.206C44.2328 279.897 44.0781 279.489 44.0781 278.983C44.0781 278.495 44.2234 277.984 44.5141 277.45C44.8141 276.906 45.2453 276.391 45.8078 275.903C46.3797 275.416 47.0875 275.027 47.9313 274.736C48.775 274.436 49.7172 274.286 50.7578 274.286C51.6672 274.286 52.4969 274.413 53.2469 274.666C53.9969 274.909 54.6484 275.266 55.2016 275.734C55.7547 276.203 56.1719 276.747 56.4531 277.366C56.7344 277.984 56.875 278.65 56.875 279.363C56.875 280.3 56.6688 281.106 56.2563 281.781C55.8531 282.447 55.2719 283.098 54.5125 283.736C55.2438 284.13 55.8578 284.58 56.3547 285.086C56.8609 285.592 57.2406 286.155 57.4938 286.773C57.7469 287.383 57.8734 288.044 57.8734 288.756C57.8734 289.609 57.7 290.434 57.3531 291.231C57.0156 292.028 56.5141 292.741 55.8484 293.369C55.1828 293.988 54.3906 294.475 53.4719 294.831C52.5625 295.178 51.5547 295.352 50.4484 295.352C49.3234 295.352 48.3156 295.15 47.425 294.747C46.5344 294.344 45.7984 293.842 45.2172 293.242C44.6453 292.633 44.2094 292.005 43.9094 291.358C43.6188 290.711 43.4734 290.177 43.4734 289.755C43.4734 289.211 43.6469 288.775 43.9938 288.447C44.35 288.109 44.7906 287.941 45.3156 287.941C45.5781 287.941 45.8313 288.02 46.075 288.18C46.3188 288.33 46.4781 288.513 46.5531 288.728C47.0406 290.031 47.5609 291.002 48.1141 291.639C48.6766 292.267 49.4641 292.581 50.4766 292.581C51.0578 292.581 51.6156 292.441 52.15 292.159C52.6938 291.869 53.1391 291.442 53.4859 290.88C53.8422 290.317 54.0203 289.666 54.0203 288.925C54.0203 287.828 53.7203 286.97 53.1203 286.352C52.5203 285.723 51.6859 285.409 50.6172 285.409C50.4297 285.409 50.1391 285.428 49.7453 285.466C49.3516 285.503 49.0984 285.522 48.9859 285.522C48.4703 285.522 48.0719 285.395 47.7906 285.142C47.5094 284.88 47.3688 284.519 47.3688 284.059C47.3688 283.609 47.5375 283.248 47.875 282.977C48.2125 282.695 48.7141 282.555 49.3797 282.555H49.9563ZM74.9453 284.889C74.9453 286.427 74.8516 287.748 74.6641 288.855C74.4766 289.961 74.1297 290.964 73.6234 291.864C72.9859 292.97 72.1609 293.823 71.1484 294.423C70.1359 295.023 69.0109 295.323 67.7734 295.323C66.3484 295.323 65.0687 294.92 63.9344 294.114C62.8094 293.308 61.9609 292.192 61.3891 290.767C61.0984 289.989 60.8828 289.131 60.7422 288.194C60.6109 287.247 60.5453 286.225 60.5453 285.128C60.5453 283.713 60.6203 282.438 60.7703 281.303C60.9203 280.169 61.1547 279.194 61.4734 278.378C62.0266 277.028 62.8281 276.002 63.8781 275.298C64.9375 274.586 66.1984 274.23 67.6609 274.23C68.6266 274.23 69.5031 274.389 70.2906 274.708C71.0781 275.017 71.7672 275.477 72.3578 276.086C72.9578 276.686 73.4641 277.431 73.8766 278.322C74.5891 279.869 74.9453 282.058 74.9453 284.889ZM71.0922 284.608C71.0922 282.892 70.9891 281.491 70.7828 280.403C70.5766 279.306 70.2297 278.481 69.7422 277.928C69.2547 277.366 68.5797 277.084 67.7172 277.084C66.4797 277.084 65.6172 277.708 65.1297 278.955C64.6516 280.202 64.4125 282.123 64.4125 284.72C64.4125 286.483 64.5156 287.927 64.7219 289.052C64.9281 290.177 65.275 291.03 65.7625 291.611C66.25 292.183 66.9109 292.469 67.7453 292.469C68.6078 292.469 69.2828 292.169 69.7703 291.569C70.2578 290.969 70.6 290.111 70.7969 288.995C70.9937 287.88 71.0922 286.417 71.0922 284.608ZM85.8297 279.672C85.8297 281.463 85.4359 282.794 84.6484 283.666C83.8609 284.538 82.7828 284.973 81.4141 284.973C80.5703 284.973 79.8109 284.791 79.1359 284.425C78.4703 284.05 77.95 283.469 77.575 282.681C77.2 281.894 77.0125 280.933 77.0125 279.798C77.0125 278.58 77.1578 277.563 77.4484 276.747C77.7391 275.931 78.2078 275.313 78.8547 274.891C79.5109 274.469 80.3453 274.258 81.3578 274.258C82.0891 274.258 82.7312 274.37 83.2844 274.595C83.8375 274.82 84.3062 275.167 84.6906 275.636C85.075 276.095 85.3609 276.658 85.5484 277.323C85.7359 277.989 85.8297 278.772 85.8297 279.672ZM83.2 279.531C83.2 278.303 83.0687 277.413 82.8062 276.859C82.5437 276.297 82.0797 276.016 81.4141 276.016C80.9641 276.016 80.6031 276.152 80.3312 276.423C80.0687 276.686 79.8859 277.08 79.7828 277.605C79.6891 278.12 79.6422 278.781 79.6422 279.588C79.6422 280.422 79.6891 281.102 79.7828 281.627C79.8859 282.152 80.0687 282.55 80.3312 282.822C80.5937 283.084 80.9547 283.216 81.4141 283.216C82.1078 283.216 82.5766 282.92 82.8203 282.33C83.0734 281.739 83.2 280.806 83.2 279.531ZM100.23 289.839C100.23 291.63 99.8359 292.961 99.0484 293.833C98.2609 294.705 97.1828 295.141 95.8141 295.141C94.9609 295.141 94.1969 294.953 93.5219 294.578C92.8562 294.203 92.3312 293.627 91.9469 292.848C91.5719 292.07 91.3844 291.109 91.3844 289.966C91.3844 288.138 91.7312 286.764 92.425 285.845C93.1281 284.917 94.2391 284.453 95.7578 284.453C96.4891 284.453 97.1266 284.566 97.6703 284.791C98.2234 285.016 98.6922 285.353 99.0766 285.803C99.4703 286.253 99.7609 286.816 99.9484 287.491C100.136 288.156 100.23 288.939 100.23 289.839ZM97.6 289.698C97.6 288.489 97.4687 287.608 97.2062 287.055C96.9437 286.492 96.4797 286.211 95.8141 286.211C95.3453 286.211 94.9797 286.342 94.7172 286.605C94.4547 286.867 94.2672 287.256 94.1547 287.772C94.0516 288.278 94 288.939 94 289.755C94 291.011 94.1312 291.93 94.3937 292.511C94.6656 293.092 95.1391 293.383 95.8141 293.383C96.4984 293.383 96.9672 293.088 97.2203 292.497C97.4734 291.897 97.6 290.964 97.6 289.698ZM95.2094 276.114L83.4953 295C83.1953 295.516 82.8578 295.773 82.4828 295.773C82.2672 295.773 82.0516 295.689 81.8359 295.52C81.6203 295.361 81.5125 295.15 81.5125 294.888C81.5125 294.691 81.6062 294.452 81.7937 294.17L93.5781 275.13C93.7844 274.783 93.9625 274.525 94.1125 274.356C94.2719 274.178 94.4969 274.089 94.7875 274.089C95.0687 274.089 95.2937 274.173 95.4625 274.342C95.6406 274.502 95.7297 274.717 95.7297 274.989C95.7297 275.186 95.5562 275.561 95.2094 276.114Z" fill="#454F5B"/>
<g opacity="0.8">
<g filter="url(#filter4_d)">
<circle cx="128" cy="154" r="47" fill="white"/>
</g>
<g clip-path="url(#clip0)">
<path fill-rule="evenodd" clip-rule="evenodd" d="M129.765 132L116 147H142L129.765 132Z" fill="#FFC48B"/>
<path d="M110.743 168.439V158.074C108.814 159.555 107.516 160.295 106.848 160.295C106.529 160.295 106.244 160.17 105.993 159.919C105.75 159.661 105.629 159.365 105.629 159.031C105.629 158.644 105.75 158.359 105.993 158.177C106.236 157.994 106.665 157.759 107.28 157.47C108.199 157.037 108.932 156.582 109.479 156.103C110.033 155.625 110.523 155.09 110.948 154.497C111.373 153.905 111.651 153.541 111.78 153.404C111.909 153.267 112.152 153.199 112.509 153.199C112.911 153.199 113.234 153.355 113.477 153.666C113.72 153.977 113.841 154.406 113.841 154.953V167.995C113.841 169.522 113.321 170.285 112.281 170.285C111.818 170.285 111.446 170.129 111.165 169.818C110.884 169.506 110.743 169.047 110.743 168.439ZM119.594 157.539C119.594 156.779 119.799 156.065 120.209 155.397C120.626 154.721 121.234 154.182 122.031 153.78C122.836 153.377 123.774 153.176 124.845 153.176C125.748 153.176 126.542 153.294 127.225 153.529C127.909 153.765 128.478 154.091 128.934 154.509C129.39 154.919 129.728 155.386 129.948 155.91C130.168 156.426 130.278 156.977 130.278 157.561C130.278 158.306 130.084 158.97 129.697 159.555C129.318 160.14 128.748 160.618 127.989 160.99C128.634 161.241 129.169 161.571 129.595 161.981C130.02 162.383 130.339 162.854 130.551 163.393C130.772 163.925 130.882 164.517 130.882 165.17C130.882 166.127 130.65 166.997 130.187 167.779C129.724 168.553 129.044 169.161 128.148 169.601C127.252 170.042 126.196 170.262 124.981 170.262C123.721 170.262 122.643 170.042 121.747 169.601C120.85 169.161 120.175 168.557 119.719 167.79C119.263 167.016 119.036 166.15 119.036 165.193C119.036 163.15 120 161.749 121.929 160.99C120.372 160.261 119.594 159.111 119.594 157.539ZM127.761 165.079C127.761 164.487 127.639 163.971 127.396 163.53C127.153 163.09 126.812 162.752 126.371 162.516C125.931 162.281 125.437 162.163 124.89 162.163C124.116 162.163 123.467 162.421 122.943 162.938C122.419 163.454 122.157 164.176 122.157 165.102C122.157 165.694 122.278 166.218 122.521 166.674C122.772 167.122 123.11 167.471 123.535 167.722C123.96 167.965 124.435 168.086 124.959 168.086C125.49 168.086 125.969 167.961 126.394 167.71C126.819 167.46 127.153 167.107 127.396 166.651C127.639 166.196 127.761 165.672 127.761 165.079ZM124.913 155.352C124.199 155.352 123.622 155.576 123.182 156.024C122.749 156.464 122.532 157.034 122.532 157.732C122.532 158.378 122.757 158.917 123.205 159.35C123.653 159.775 124.23 159.988 124.936 159.988C125.293 159.988 125.616 159.931 125.904 159.817C126.2 159.703 126.451 159.547 126.656 159.35C126.869 159.145 127.032 158.906 127.146 158.632C127.26 158.351 127.317 158.044 127.317 157.71C127.317 157.261 127.214 156.859 127.009 156.502C126.812 156.145 126.531 155.864 126.166 155.659C125.802 155.454 125.384 155.352 124.913 155.352ZM139.607 157.584C139.607 159.035 139.288 160.113 138.65 160.819C138.012 161.525 137.139 161.878 136.03 161.878C135.347 161.878 134.732 161.73 134.185 161.434C133.646 161.131 133.224 160.66 132.921 160.022C132.617 159.384 132.465 158.606 132.465 157.687C132.465 156.7 132.583 155.876 132.818 155.215C133.054 154.554 133.433 154.053 133.957 153.711C134.489 153.37 135.165 153.199 135.985 153.199C136.577 153.199 137.097 153.29 137.545 153.472C137.993 153.654 138.373 153.935 138.684 154.315C138.996 154.687 139.227 155.143 139.379 155.682C139.531 156.221 139.607 156.855 139.607 157.584ZM137.477 157.47C137.477 156.476 137.371 155.754 137.158 155.306C136.945 154.85 136.57 154.623 136.03 154.623C135.666 154.623 135.374 154.733 135.153 154.953C134.941 155.166 134.793 155.485 134.709 155.91C134.633 156.327 134.595 156.863 134.595 157.516C134.595 158.192 134.633 158.742 134.709 159.168C134.793 159.593 134.941 159.916 135.153 160.136C135.366 160.348 135.658 160.455 136.03 160.455C136.592 160.455 136.972 160.215 137.169 159.737C137.374 159.259 137.477 158.503 137.477 157.47ZM151.271 165.82C151.271 167.27 150.952 168.348 150.314 169.055C149.676 169.761 148.803 170.114 147.694 170.114C147.003 170.114 146.384 169.962 145.838 169.658C145.299 169.355 144.873 168.888 144.562 168.257C144.258 167.627 144.106 166.849 144.106 165.922C144.106 164.441 144.387 163.329 144.949 162.585C145.519 161.833 146.419 161.457 147.649 161.457C148.241 161.457 148.758 161.548 149.198 161.73C149.646 161.913 150.026 162.186 150.337 162.551C150.656 162.915 150.891 163.371 151.043 163.917C151.195 164.457 151.271 165.091 151.271 165.82ZM149.141 165.706C149.141 164.726 149.035 164.012 148.822 163.564C148.609 163.109 148.234 162.881 147.694 162.881C147.315 162.881 147.019 162.987 146.806 163.2C146.593 163.412 146.441 163.728 146.35 164.145C146.267 164.555 146.225 165.091 146.225 165.751C146.225 166.769 146.331 167.513 146.544 167.984C146.764 168.455 147.148 168.69 147.694 168.69C148.249 168.69 148.628 168.451 148.833 167.972C149.038 167.486 149.141 166.731 149.141 165.706ZM147.205 154.702L137.716 170C137.473 170.418 137.2 170.626 136.896 170.626C136.721 170.626 136.547 170.558 136.372 170.421C136.197 170.292 136.11 170.121 136.11 169.909C136.11 169.749 136.186 169.556 136.338 169.328L145.883 153.905C146.05 153.624 146.195 153.415 146.316 153.279C146.445 153.134 146.627 153.062 146.863 153.062C147.091 153.062 147.273 153.13 147.41 153.267C147.554 153.396 147.626 153.571 147.626 153.791C147.626 153.951 147.486 154.254 147.205 154.702Z" fill="#454F5B"/>
</g>
</g>
<g opacity="0.6">
<g filter="url(#filter5_d)">
<circle cx="227.5" cy="167.5" r="40.5" fill="white"/>
</g>
<path fill-rule="evenodd" clip-rule="evenodd" d="M228.267 150L216 164H239L228.267 150Z" fill="#95CDB1"/>
<path d="M213.087 181.651V172.694C211.42 173.973 210.298 174.613 209.72 174.613C209.445 174.613 209.198 174.505 208.982 174.288C208.772 174.065 208.667 173.809 208.667 173.52C208.667 173.186 208.772 172.94 208.982 172.782C209.192 172.625 209.563 172.421 210.094 172.172C210.888 171.798 211.522 171.404 211.994 170.991C212.473 170.577 212.896 170.115 213.264 169.603C213.631 169.091 213.871 168.776 213.983 168.658C214.094 168.54 214.304 168.48 214.613 168.48C214.96 168.48 215.239 168.615 215.449 168.884C215.659 169.153 215.764 169.524 215.764 169.996V181.268C215.764 182.587 215.315 183.246 214.416 183.246C214.015 183.246 213.694 183.112 213.451 182.843C213.208 182.573 213.087 182.176 213.087 181.651ZM230.412 175.922C230.412 176.999 230.346 177.924 230.215 178.698C230.084 179.473 229.841 180.175 229.486 180.805C229.04 181.579 228.463 182.176 227.754 182.596C227.045 183.016 226.258 183.226 225.391 183.226C224.394 183.226 223.498 182.944 222.704 182.38C221.917 181.815 221.323 181.035 220.922 180.037C220.719 179.492 220.568 178.892 220.47 178.236C220.378 177.573 220.332 176.858 220.332 176.09C220.332 175.099 220.384 174.206 220.489 173.412C220.594 172.618 220.758 171.936 220.981 171.365C221.369 170.42 221.93 169.701 222.665 169.209C223.406 168.71 224.289 168.461 225.313 168.461C225.989 168.461 226.602 168.572 227.153 168.795C227.705 169.012 228.187 169.334 228.6 169.76C229.02 170.18 229.375 170.702 229.664 171.325C230.162 172.408 230.412 173.94 230.412 175.922ZM227.715 175.725C227.715 174.525 227.642 173.543 227.498 172.782C227.354 172.014 227.111 171.437 226.77 171.05C226.428 170.656 225.956 170.459 225.352 170.459C224.486 170.459 223.882 170.895 223.541 171.768C223.206 172.641 223.039 173.986 223.039 175.804C223.039 177.038 223.111 178.049 223.255 178.836C223.4 179.624 223.643 180.221 223.984 180.628C224.325 181.028 224.788 181.228 225.372 181.228C225.975 181.228 226.448 181.018 226.789 180.598C227.13 180.178 227.37 179.578 227.508 178.797C227.646 178.016 227.715 176.992 227.715 175.725ZM238.031 172.27C238.031 173.524 237.755 174.456 237.204 175.066C236.653 175.676 235.898 175.981 234.94 175.981C234.349 175.981 233.818 175.853 233.345 175.598C232.879 175.335 232.515 174.928 232.252 174.377C231.99 173.826 231.859 173.153 231.859 172.359C231.859 171.506 231.96 170.794 232.164 170.223C232.367 169.652 232.695 169.219 233.148 168.923C233.608 168.628 234.192 168.48 234.9 168.48C235.412 168.48 235.862 168.559 236.249 168.717C236.636 168.874 236.964 169.117 237.233 169.445C237.502 169.767 237.703 170.16 237.834 170.626C237.965 171.092 238.031 171.64 238.031 172.27ZM236.19 172.172C236.19 171.312 236.098 170.689 235.914 170.302C235.731 169.908 235.406 169.711 234.94 169.711C234.625 169.711 234.372 169.806 234.182 169.996C233.998 170.18 233.87 170.456 233.798 170.823C233.732 171.184 233.7 171.647 233.7 172.211C233.7 172.795 233.732 173.271 233.798 173.639C233.87 174.006 233.998 174.285 234.182 174.475C234.366 174.659 234.618 174.751 234.94 174.751C235.425 174.751 235.754 174.544 235.924 174.131C236.101 173.717 236.19 173.064 236.19 172.172ZM248.111 179.387C248.111 180.641 247.835 181.573 247.284 182.183C246.733 182.793 245.978 183.098 245.02 183.098C244.423 183.098 243.888 182.967 243.415 182.705C242.949 182.442 242.582 182.039 242.313 181.494C242.05 180.949 241.919 180.277 241.919 179.476C241.919 178.196 242.162 177.235 242.647 176.592C243.14 175.942 243.917 175.617 244.98 175.617C245.492 175.617 245.939 175.696 246.319 175.853C246.706 176.011 247.035 176.247 247.304 176.562C247.579 176.877 247.783 177.271 247.914 177.743C248.045 178.209 248.111 178.757 248.111 179.387ZM246.27 179.289C246.27 178.442 246.178 177.825 245.994 177.438C245.811 177.045 245.486 176.848 245.02 176.848C244.692 176.848 244.436 176.94 244.252 177.123C244.068 177.307 243.937 177.579 243.858 177.94C243.786 178.295 243.75 178.757 243.75 179.328C243.75 180.208 243.842 180.851 244.026 181.258C244.216 181.665 244.547 181.868 245.02 181.868C245.499 181.868 245.827 181.661 246.004 181.248C246.181 180.828 246.27 180.175 246.27 179.289ZM244.597 169.78L236.397 183C236.187 183.361 235.95 183.541 235.688 183.541C235.537 183.541 235.386 183.482 235.235 183.364C235.084 183.253 235.009 183.105 235.009 182.921C235.009 182.783 235.074 182.616 235.206 182.419L243.455 169.091C243.599 168.848 243.724 168.668 243.829 168.549C243.94 168.425 244.098 168.362 244.301 168.362C244.498 168.362 244.656 168.421 244.774 168.54C244.898 168.651 244.961 168.802 244.961 168.992C244.961 169.13 244.839 169.393 244.597 169.78Z" fill="#454F5B"/>
</g>
<g opacity="0.6">
<g filter="url(#filter6_d)">
<circle cx="63.5" cy="54.5" r="40.5" fill="white"/>
</g>
<path fill-rule="evenodd" clip-rule="evenodd" d="M64.2667 37L52 51H75L64.2667 37Z" fill="#95CDB1"/>
<path d="M49.0867 68.6514V59.6936C47.4198 60.9733 46.2977 61.6131 45.7202 61.6131C45.4445 61.6131 45.1984 61.5048 44.9819 61.2883C44.7719 61.0652 44.6669 60.8092 44.6669 60.5205C44.6669 60.1858 44.7719 59.9397 44.9819 59.7822C45.1919 59.6247 45.5627 59.4213 46.0942 59.1719C46.8883 58.7978 47.5216 58.4041 47.9941 57.9906C48.4731 57.5772 48.8964 57.1145 49.2639 56.6027C49.6314 56.0908 49.8709 55.7758 49.9825 55.6577C50.0941 55.5395 50.3041 55.4805 50.6125 55.4805C50.9603 55.4805 51.2392 55.615 51.4492 55.8841C51.6592 56.1531 51.7642 56.5239 51.7642 56.9964V68.2675C51.7642 69.5866 51.3147 70.2461 50.4156 70.2461C50.0153 70.2461 49.6938 70.1116 49.4509 69.8425C49.2081 69.5734 49.0867 69.1764 49.0867 68.6514ZM66.4117 62.9223C66.4117 63.9986 66.3461 64.9239 66.2148 65.6983C66.0836 66.4727 65.8408 67.1748 65.4864 67.8048C65.0402 68.5792 64.4627 69.1764 63.7539 69.5964C63.0452 70.0164 62.2577 70.2264 61.3914 70.2264C60.3939 70.2264 59.4981 69.9442 58.7041 69.3798C57.9166 68.8155 57.3227 68.0345 56.9223 67.037C56.7189 66.4923 56.568 65.8919 56.4695 65.2356C56.3777 64.5728 56.3317 63.8575 56.3317 63.0897C56.3317 62.0988 56.3842 61.2063 56.4892 60.4122C56.5942 59.6181 56.7583 58.9356 56.9814 58.3647C57.3686 57.4197 57.9297 56.7011 58.6647 56.2089C59.4063 55.7102 60.2889 55.4608 61.3127 55.4608C61.9886 55.4608 62.6022 55.5723 63.1534 55.7955C63.7047 56.012 64.187 56.3336 64.6005 56.7602C65.0205 57.1802 65.3748 57.7019 65.6636 58.3253C66.1623 59.4081 66.4117 60.9405 66.4117 62.9223ZM63.7145 62.7255C63.7145 61.5245 63.6423 60.5434 63.498 59.7822C63.3536 59.0144 63.1108 58.4369 62.7695 58.0497C62.4283 57.6559 61.9558 57.4591 61.352 57.4591C60.4858 57.4591 59.882 57.8955 59.5408 58.7683C59.2061 59.6411 59.0388 60.9864 59.0388 62.8042C59.0388 64.038 59.1109 65.0486 59.2553 65.8361C59.3997 66.6236 59.6425 67.2208 59.9838 67.6277C60.325 68.028 60.7877 68.2281 61.3717 68.2281C61.9755 68.2281 62.448 68.0181 62.7892 67.5981C63.1305 67.1781 63.37 66.5777 63.5078 65.7967C63.6456 65.0158 63.7145 63.992 63.7145 62.7255ZM74.0308 59.2703C74.0308 60.5238 73.7552 61.4556 73.2039 62.0659C72.6527 62.6763 71.898 62.9814 70.9398 62.9814C70.3492 62.9814 69.8177 62.8534 69.3452 62.5975C68.8792 62.335 68.515 61.9281 68.2525 61.3769C67.99 60.8256 67.8587 60.153 67.8587 59.3589C67.8587 58.5058 67.9605 57.7938 68.1639 57.2228C68.3673 56.6519 68.6955 56.2188 69.1483 55.9234C69.6077 55.6281 70.1917 55.4805 70.9005 55.4805C71.4123 55.4805 71.8619 55.5592 72.2491 55.7167C72.6362 55.8742 72.9644 56.117 73.2334 56.4452C73.5025 56.7667 73.7027 57.1605 73.8339 57.6264C73.9652 58.0923 74.0308 58.6403 74.0308 59.2703ZM72.19 59.1719C72.19 58.3122 72.0981 57.6888 71.9144 57.3016C71.7306 56.9078 71.4058 56.7109 70.9398 56.7109C70.6248 56.7109 70.3722 56.8061 70.1819 56.9964C69.9981 57.1802 69.8702 57.4558 69.798 57.8233C69.7323 58.1842 69.6995 58.6469 69.6995 59.2113C69.6995 59.7953 69.7323 60.2711 69.798 60.6386C69.8702 61.0061 69.9981 61.285 70.1819 61.4753C70.3656 61.6591 70.6183 61.7509 70.9398 61.7509C71.4255 61.7509 71.7536 61.5442 71.9242 61.1308C72.1014 60.7173 72.19 60.0644 72.19 59.1719ZM84.1108 66.3873C84.1108 67.6408 83.8352 68.5727 83.2839 69.183C82.7327 69.7933 81.978 70.0984 81.0198 70.0984C80.4227 70.0984 79.8878 69.9672 79.4153 69.7047C78.9494 69.4422 78.5819 69.0386 78.3128 68.4939C78.0503 67.9492 77.9191 67.2766 77.9191 66.4759C77.9191 65.1963 78.1619 64.2348 78.6475 63.5917C79.1397 62.942 79.9173 62.6172 80.9805 62.6172C81.4923 62.6172 81.9386 62.6959 82.3192 62.8534C82.7064 63.0109 83.0345 63.2472 83.3036 63.5622C83.5792 63.8772 83.7827 64.2709 83.9139 64.7434C84.0452 65.2094 84.1108 65.7573 84.1108 66.3873ZM82.27 66.2889C82.27 65.4423 82.1781 64.8255 81.9944 64.4383C81.8106 64.0445 81.4858 63.8477 81.0198 63.8477C80.6917 63.8477 80.4358 63.9395 80.252 64.1233C80.0683 64.307 79.937 64.5794 79.8583 64.9403C79.7861 65.2947 79.75 65.7573 79.75 66.3283C79.75 67.2077 79.8419 67.8508 80.0256 68.2577C80.2159 68.6645 80.5473 68.868 81.0198 68.868C81.4989 68.868 81.827 68.6613 82.0042 68.2478C82.1814 67.8278 82.27 67.1748 82.27 66.2889ZM80.5966 56.7798L72.3967 70C72.1867 70.3609 71.9505 70.5414 71.688 70.5414C71.537 70.5414 71.3861 70.4823 71.2352 70.3642C71.0842 70.2527 71.0087 70.105 71.0087 69.9213C71.0087 69.7834 71.0744 69.6161 71.2056 69.4192L79.4547 56.0908C79.5991 55.848 79.7237 55.6675 79.8287 55.5494C79.9403 55.4247 80.0978 55.3623 80.3012 55.3623C80.4981 55.3623 80.6556 55.4214 80.7737 55.5395C80.8984 55.6511 80.9608 55.802 80.9608 55.9923C80.9608 56.1302 80.8394 56.3927 80.5966 56.7798Z" fill="#454F5B"/>
</g>
<g opacity="0.5">
<g filter="url(#filter7_d)">
<circle cx="176.5" cy="66.5" r="32.5" fill="white"/>
</g>
<g clip-path="url(#clip1)">
<path fill-rule="evenodd" clip-rule="evenodd" d="M176.6 52L167 63H185L176.6 52Z" fill="#95CDB1"/>
<path d="M171.881 72.8261C171.535 73.2356 171.146 73.5454 170.716 73.7554C170.291 73.9601 169.818 74.0625 169.298 74.0625C168.805 74.0625 168.343 73.968 167.912 73.779C167.487 73.5848 167.117 73.317 166.802 72.9758C166.492 72.6293 166.253 72.2276 166.085 71.7709C165.917 71.3089 165.833 70.8259 165.833 70.3219C165.833 69.7811 165.928 69.2693 166.117 68.7863C166.306 68.298 166.576 67.8754 166.928 67.5184C167.28 67.1614 167.697 66.8831 168.18 66.6836C168.668 66.4841 169.206 66.3844 169.794 66.3844C170.472 66.3844 171.075 66.5078 171.606 66.7545C172.136 67.0013 172.582 67.3609 172.944 67.8334C173.307 68.3006 173.585 68.8913 173.779 69.6053C173.973 70.3193 174.071 71.1278 174.071 72.0308C174.071 73.0388 173.968 73.9286 173.763 74.7004C173.559 75.4669 173.259 76.1126 172.866 76.6376C172.477 77.1574 172.01 77.5459 171.464 77.8031C170.918 78.0551 170.298 78.1811 169.605 78.1811C168.923 78.1811 168.33 78.0525 167.826 77.7953C167.322 77.5328 166.938 77.2099 166.676 76.8266C166.413 76.4381 166.282 76.0654 166.282 75.7084C166.282 75.4879 166.364 75.291 166.526 75.1178C166.689 74.9445 166.896 74.8579 167.148 74.8579C167.379 74.8579 167.587 74.9235 167.771 75.0548C167.954 75.1808 168.093 75.3724 168.188 75.6296C168.303 75.9446 168.495 76.1993 168.763 76.3935C169.031 76.5825 169.332 76.677 169.668 76.677C169.968 76.677 170.251 76.6009 170.519 76.4486C170.787 76.2964 171.015 76.0811 171.204 75.8029C171.582 75.2411 171.808 74.2489 171.881 72.8261ZM171.7 70.4164C171.7 70.0594 171.65 69.7313 171.551 69.432C171.456 69.1275 171.32 68.865 171.141 68.6445C170.968 68.424 170.758 68.2508 170.511 68.1248C170.27 67.9988 170.004 67.9358 169.716 67.9358C169.217 67.9358 168.794 68.151 168.448 68.5815C168.101 69.0068 167.928 69.5711 167.928 70.2746C167.928 70.9729 168.101 71.5294 168.448 71.9441C168.794 72.3589 169.233 72.5663 169.763 72.5663C170.088 72.5663 170.398 72.4823 170.692 72.3143C170.991 72.141 171.233 71.8916 171.417 71.5661C171.606 71.2406 171.7 70.8574 171.7 70.4164ZM180.229 69.4163C180.229 70.419 180.008 71.1645 179.567 71.6528C179.126 72.141 178.523 72.3851 177.756 72.3851C177.284 72.3851 176.858 72.2828 176.48 72.078C176.108 71.868 175.816 71.5425 175.606 71.1015C175.396 70.6605 175.291 70.1224 175.291 69.4871C175.291 68.8046 175.373 68.235 175.535 67.7783C175.698 67.3215 175.961 66.975 176.323 66.7388C176.69 66.5025 177.158 66.3844 177.725 66.3844C178.134 66.3844 178.494 66.4474 178.803 66.5734C179.113 66.6994 179.376 66.8936 179.591 67.1561C179.806 67.4134 179.966 67.7284 180.071 68.1011C180.176 68.4739 180.229 68.9123 180.229 69.4163ZM178.756 69.3375C178.756 68.6498 178.683 68.151 178.536 67.8413C178.389 67.5263 178.129 67.3688 177.756 67.3688C177.504 67.3688 177.302 67.4449 177.15 67.5971C177.003 67.7441 176.9 67.9646 176.843 68.2586C176.79 68.5474 176.764 68.9175 176.764 69.369C176.764 69.8363 176.79 70.2169 176.843 70.5109C176.9 70.8049 177.003 71.028 177.15 71.1803C177.297 71.3273 177.499 71.4008 177.756 71.4008C178.145 71.4008 178.407 71.2354 178.544 70.9046C178.685 70.5739 178.756 70.0515 178.756 69.3375ZM188.293 75.1099C188.293 76.1126 188.072 76.8581 187.631 77.3464C187.19 77.8346 186.586 78.0787 185.82 78.0787C185.342 78.0787 184.914 77.9738 184.536 77.7638C184.164 77.5538 183.87 77.2309 183.654 76.7951C183.444 76.3594 183.339 75.8213 183.339 75.1808C183.339 74.157 183.534 73.3879 183.922 72.8734C184.316 72.3536 184.938 72.0938 185.788 72.0938C186.198 72.0938 186.555 72.1568 186.859 72.2828C187.169 72.4088 187.432 72.5978 187.647 72.8498C187.867 73.1018 188.03 73.4168 188.135 73.7948C188.24 74.1675 188.293 74.6059 188.293 75.1099ZM186.82 75.0311C186.82 74.3539 186.747 73.8604 186.6 73.5506C186.453 73.2356 186.193 73.0781 185.82 73.0781C185.557 73.0781 185.353 73.1516 185.206 73.2986C185.059 73.4456 184.954 73.6635 184.891 73.9523C184.833 74.2358 184.804 74.6059 184.804 75.0626C184.804 75.7661 184.878 76.2806 185.025 76.6061C185.177 76.9316 185.442 77.0944 185.82 77.0944C186.203 77.0944 186.466 76.929 186.607 76.5983C186.749 76.2623 186.82 75.7399 186.82 75.0311ZM185.481 67.4239L178.922 78C178.754 78.2887 178.565 78.4331 178.355 78.4331C178.234 78.4331 178.113 78.3859 177.992 78.2914C177.872 78.2021 177.811 78.084 177.811 77.937C177.811 77.8268 177.864 77.6929 177.969 77.5354L184.568 66.8726C184.683 66.6784 184.783 66.534 184.867 66.4395C184.956 66.3398 185.082 66.2899 185.245 66.2899C185.403 66.2899 185.529 66.3371 185.623 66.4316C185.723 66.5209 185.773 66.6416 185.773 66.7939C185.773 66.9041 185.676 67.1141 185.481 67.4239Z" fill="#454F5B"/>
</g>
</g>
<g opacity="0.5">
<g filter="url(#filter8_d)">
<circle cx="330.5" cy="169.5" r="32.5" fill="white"/>
</g>
<g clip-path="url(#clip2)">
<path fill-rule="evenodd" clip-rule="evenodd" d="M330.6 155L321 166H339L330.6 155Z" fill="#95CDB1"/>
<path d="M325.881 175.826C325.535 176.236 325.146 176.545 324.716 176.755C324.291 176.96 323.818 177.063 323.298 177.063C322.805 177.063 322.343 176.968 321.912 176.779C321.487 176.585 321.117 176.317 320.802 175.976C320.492 175.629 320.253 175.228 320.085 174.771C319.917 174.309 319.833 173.826 319.833 173.322C319.833 172.781 319.928 172.269 320.117 171.786C320.306 171.298 320.576 170.875 320.928 170.518C321.28 170.161 321.697 169.883 322.18 169.684C322.668 169.484 323.206 169.384 323.794 169.384C324.472 169.384 325.075 169.508 325.606 169.755C326.136 170.001 326.582 170.361 326.944 170.833C327.307 171.301 327.585 171.891 327.779 172.605C327.973 173.319 328.071 174.128 328.071 175.031C328.071 176.039 327.968 176.929 327.763 177.7C327.559 178.467 327.259 179.113 326.866 179.638C326.477 180.157 326.01 180.546 325.464 180.803C324.918 181.055 324.298 181.181 323.605 181.181C322.923 181.181 322.33 181.052 321.826 180.795C321.322 180.533 320.938 180.21 320.676 179.827C320.413 179.438 320.282 179.065 320.282 178.708C320.282 178.488 320.364 178.291 320.526 178.118C320.689 177.945 320.896 177.858 321.148 177.858C321.379 177.858 321.587 177.924 321.771 178.055C321.954 178.181 322.093 178.372 322.188 178.63C322.303 178.945 322.495 179.199 322.763 179.394C323.031 179.583 323.332 179.677 323.668 179.677C323.968 179.677 324.251 179.601 324.519 179.449C324.787 179.296 325.015 179.081 325.204 178.803C325.582 178.241 325.808 177.249 325.881 175.826ZM325.7 173.416C325.7 173.059 325.65 172.731 325.551 172.432C325.456 172.128 325.32 171.865 325.141 171.645C324.968 171.424 324.758 171.251 324.511 171.125C324.27 170.999 324.004 170.936 323.716 170.936C323.217 170.936 322.794 171.151 322.448 171.582C322.101 172.007 321.928 172.571 321.928 173.275C321.928 173.973 322.101 174.529 322.448 174.944C322.794 175.359 323.233 175.566 323.763 175.566C324.088 175.566 324.398 175.482 324.692 175.314C324.991 175.141 325.233 174.892 325.417 174.566C325.606 174.241 325.7 173.857 325.7 173.416ZM334.229 172.416C334.229 173.419 334.008 174.165 333.567 174.653C333.126 175.141 332.523 175.385 331.756 175.385C331.284 175.385 330.858 175.283 330.48 175.078C330.108 174.868 329.816 174.543 329.606 174.102C329.396 173.661 329.291 173.122 329.291 172.487C329.291 171.805 329.373 171.235 329.535 170.778C329.698 170.322 329.961 169.975 330.323 169.739C330.69 169.503 331.158 169.384 331.725 169.384C332.134 169.384 332.494 169.447 332.803 169.573C333.113 169.699 333.376 169.894 333.591 170.156C333.806 170.413 333.966 170.728 334.071 171.101C334.176 171.474 334.229 171.912 334.229 172.416ZM332.756 172.338C332.756 171.65 332.683 171.151 332.536 170.841C332.389 170.526 332.129 170.369 331.756 170.369C331.504 170.369 331.302 170.445 331.15 170.597C331.003 170.744 330.9 170.965 330.843 171.259C330.79 171.547 330.764 171.918 330.764 172.369C330.764 172.836 330.79 173.217 330.843 173.511C330.9 173.805 331.003 174.028 331.15 174.18C331.297 174.327 331.499 174.401 331.756 174.401C332.145 174.401 332.407 174.235 332.544 173.905C332.685 173.574 332.756 173.052 332.756 172.338ZM342.293 178.11C342.293 179.113 342.072 179.858 341.631 180.346C341.19 180.835 340.586 181.079 339.82 181.079C339.342 181.079 338.914 180.974 338.536 180.764C338.164 180.554 337.87 180.231 337.654 179.795C337.444 179.359 337.339 178.821 337.339 178.181C337.339 177.157 337.534 176.388 337.922 175.873C338.316 175.354 338.938 175.094 339.788 175.094C340.198 175.094 340.555 175.157 340.859 175.283C341.169 175.409 341.432 175.598 341.647 175.85C341.867 176.102 342.03 176.417 342.135 176.795C342.24 177.168 342.293 177.606 342.293 178.11ZM340.82 178.031C340.82 177.354 340.747 176.86 340.6 176.551C340.453 176.236 340.193 176.078 339.82 176.078C339.557 176.078 339.353 176.152 339.206 176.299C339.059 176.446 338.954 176.664 338.891 176.952C338.833 177.236 338.804 177.606 338.804 178.063C338.804 178.766 338.878 179.281 339.025 179.606C339.177 179.932 339.442 180.094 339.82 180.094C340.203 180.094 340.466 179.929 340.607 179.598C340.749 179.262 340.82 178.74 340.82 178.031ZM339.481 170.424L332.922 181C332.754 181.289 332.565 181.433 332.355 181.433C332.234 181.433 332.113 181.386 331.992 181.291C331.872 181.202 331.811 181.084 331.811 180.937C331.811 180.827 331.864 180.693 331.969 180.535L338.568 169.873C338.683 169.678 338.783 169.534 338.867 169.44C338.956 169.34 339.082 169.29 339.245 169.29C339.403 169.29 339.529 169.337 339.623 169.432C339.723 169.521 339.773 169.642 339.773 169.794C339.773 169.904 339.676 170.114 339.481 170.424Z" fill="#454F5B"/>
</g>
</g>
<defs>
<filter id="filter0_d" x="146" y="241" width="126" height="126" filterUnits="userSpaceOnUse" color-interpolation-filters="sRGB">
<feFlood flood-opacity="0" result="BackgroundImageFix"/>
<feColorMatrix in="SourceAlpha" type="matrix" values="0 0 0 0 0 0 0 0 0 0 0 0 0 0 0 0 0 0 127 0" result="hardAlpha"/>
<feOffset dy="8"/>
<feGaussianBlur stdDeviation="5.5"/>
<feColorMatrix type="matrix" values="0 0 0 0 0.644186 0 0 0 0 0.644186 0 0 0 0 0.644186 0 0 0 0.213825 0"/>
<feBlend mode="normal" in2="BackgroundImageFix" result="effect1_dropShadow"/>
<feBlend mode="normal" in="SourceGraphic" in2="effect1_dropShadow" result="shape"/>
</filter>
<filter id="filter1_d" x="270" y="247" width="126" height="126" filterUnits="userSpaceOnUse" color-interpolation-filters="sRGB">
<feFlood flood-opacity="0" result="BackgroundImageFix"/>
<feColorMatrix in="SourceAlpha" type="matrix" values="0 0 0 0 0 0 0 0 0 0 0 0 0 0 0 0 0 0 127 0" result="hardAlpha"/>
<feOffset dy="8"/>
<feGaussianBlur stdDeviation="5.5"/>
<feColorMatrix type="matrix" values="0 0 0 0 0.644186 0 0 0 0 0.644186 0 0 0 0 0.644186 0 0 0 0.213825 0"/>
<feBlend mode="normal" in2="BackgroundImageFix" result="effect1_dropShadow"/>
<feBlend mode="normal" in="SourceGraphic" in2="effect1_dropShadow" result="shape"/>
</filter>
<filter id="filter2_d" x="228" y="0" width="126" height="126" filterUnits="userSpaceOnUse" color-interpolation-filters="sRGB">
<feFlood flood-opacity="0" result="BackgroundImageFix"/>
<feColorMatrix in="SourceAlpha" type="matrix" values="0 0 0 0 0 0 0 0 0 0 0 0 0 0 0 0 0 0 127 0" result="hardAlpha"/>
<feOffset dy="8"/>
<feGaussianBlur stdDeviation="5.5"/>
<feColorMatrix type="matrix" values="0 0 0 0 0.644186 0 0 0 0 0.644186 0 0 0 0 0.644186 0 0 0 0.213825 0"/>
<feBlend mode="normal" in2="BackgroundImageFix" result="effect1_dropShadow"/>
<feBlend mode="normal" in="SourceGraphic" in2="effect1_dropShadow" result="shape"/>
</filter>
<filter id="filter3_d" x="0" y="213" width="140" height="140" filterUnits="userSpaceOnUse" color-interpolation-filters="sRGB">
<feFlood flood-opacity="0" result="BackgroundImageFix"/>
<feColorMatrix in="SourceAlpha" type="matrix" values="0 0 0 0 0 0 0 0 0 0 0 0 0 0 0 0 0 0 127 0" result="hardAlpha"/>
<feOffset dy="9"/>
<feGaussianBlur stdDeviation="6"/>
<feColorMatrix type="matrix" values="0 0 0 0 0.644186 0 0 0 0 0.644186 0 0 0 0 0.644186 0 0 0 0.213825 0"/>
<feBlend mode="normal" in2="BackgroundImageFix" result="effect1_dropShadow"/>
<feBlend mode="normal" in="SourceGraphic" in2="effect1_dropShadow" result="shape"/>
</filter>
<filter id="filter4_d" x="72" y="104" width="112" height="112" filterUnits="userSpaceOnUse" color-interpolation-filters="sRGB">
<feFlood flood-opacity="0" result="BackgroundImageFix"/>
<feColorMatrix in="SourceAlpha" type="matrix" values="0 0 0 0 0 0 0 0 0 0 0 0 0 0 0 0 0 0 127 0" result="hardAlpha"/>
<feOffset dy="6"/>
<feGaussianBlur stdDeviation="4.5"/>
<feColorMatrix type="matrix" values="0 0 0 0 0.644186 0 0 0 0 0.644186 0 0 0 0 0.644186 0 0 0 0.213825 0"/>
<feBlend mode="normal" in2="BackgroundImageFix" result="effect1_dropShadow"/>
<feBlend mode="normal" in="SourceGraphic" in2="effect1_dropShadow" result="shape"/>
</filter>
<filter id="filter5_d" x="178" y="124" width="99" height="99" filterUnits="userSpaceOnUse" color-interpolation-filters="sRGB">
<feFlood flood-opacity="0" result="BackgroundImageFix"/>
<feColorMatrix in="SourceAlpha" type="matrix" values="0 0 0 0 0 0 0 0 0 0 0 0 0 0 0 0 0 0 127 0" result="hardAlpha"/>
<feOffset dy="6"/>
<feGaussianBlur stdDeviation="4.5"/>
<feColorMatrix type="matrix" values="0 0 0 0 0.644186 0 0 0 0 0.644186 0 0 0 0 0.644186 0 0 0 0.213825 0"/>
<feBlend mode="normal" in2="BackgroundImageFix" result="effect1_dropShadow"/>
<feBlend mode="normal" in="SourceGraphic" in2="effect1_dropShadow" result="shape"/>
</filter>
<filter id="filter6_d" x="14" y="11" width="99" height="99" filterUnits="userSpaceOnUse" color-interpolation-filters="sRGB">
<feFlood flood-opacity="0" result="BackgroundImageFix"/>
<feColorMatrix in="SourceAlpha" type="matrix" values="0 0 0 0 0 0 0 0 0 0 0 0 0 0 0 0 0 0 127 0" result="hardAlpha"/>
<feOffset dy="6"/>
<feGaussianBlur stdDeviation="4.5"/>
<feColorMatrix type="matrix" values="0 0 0 0 0.644186 0 0 0 0 0.644186 0 0 0 0 0.644186 0 0 0 0.213825 0"/>
<feBlend mode="normal" in2="BackgroundImageFix" result="effect1_dropShadow"/>
<feBlend mode="normal" in="SourceGraphic" in2="effect1_dropShadow" result="shape"/>
</filter>
<filter id="filter7_d" x="137" y="32" width="79" height="79" filterUnits="userSpaceOnUse" color-interpolation-filters="sRGB">
<feFlood flood-opacity="0" result="BackgroundImageFix"/>
<feColorMatrix in="SourceAlpha" type="matrix" values="0 0 0 0 0 0 0 0 0 0 0 0 0 0 0 0 0 0 127 0" result="hardAlpha"/>
<feOffset dy="5"/>
<feGaussianBlur stdDeviation="3.5"/>
<feColorMatrix type="matrix" values="0 0 0 0 0.644186 0 0 0 0 0.644186 0 0 0 0 0.644186 0 0 0 0.213825 0"/>
<feBlend mode="normal" in2="BackgroundImageFix" result="effect1_dropShadow"/>
<feBlend mode="normal" in="SourceGraphic" in2="effect1_dropShadow" result="shape"/>
</filter>
<filter id="filter8_d" x="291" y="135" width="79" height="79" filterUnits="userSpaceOnUse" color-interpolation-filters="sRGB">
<feFlood flood-opacity="0" result="BackgroundImageFix"/>
<feColorMatrix in="SourceAlpha" type="matrix" values="0 0 0 0 0 0 0 0 0 0 0 0 0 0 0 0 0 0 127 0" result="hardAlpha"/>
<feOffset dy="5"/>
<feGaussianBlur stdDeviation="3.5"/>
<feColorMatrix type="matrix" values="0 0 0 0 0.644186 0 0 0 0 0.644186 0 0 0 0 0.644186 0 0 0 0.213825 0"/>
<feBlend mode="normal" in2="BackgroundImageFix" result="effect1_dropShadow"/>
<feBlend mode="normal" in="SourceGraphic" in2="effect1_dropShadow" result="shape"/>
</filter>
<clipPath id="clip0">
<rect width="50" height="45" fill="white" transform="translate(104 131)"/>
</clipPath>
<clipPath id="clip1">
<rect width="25" height="29" fill="white" transform="translate(164 52)"/>
</clipPath>
<clipPath id="clip2">
<rect width="25" height="29" fill="white" transform="translate(318 155)"/>
</clipPath>
</defs>
</svg>
